<svg width="15" height="20" viewBox="0 0 15 20" fill="none" xmlns="http://www.w3.org/2000/svg">
<path fill-rule="evenodd" clip-rule="evenodd" d="M5.53535 7.5H9.13336V5.90909H5.53535V7.5ZM10.6149 5.11364C10.6149 4.67432 10.2832 4.31818 9.87412 4.31818H4.79457C4.38546 4.31818 4.05381 4.67432 4.05381 5.11364V8.29545C4.05381 8.73477 4.38546 9.09091 4.79457 9.09091H9.87412C10.2832 9.09091 10.6149 8.73477 10.6149 8.29545V5.11364ZM4.05869 11.7045C4.05869 11.2652 4.39034 10.9091 4.79945 10.9091H9.83751C10.2466 10.9091 10.5783 11.2652 10.5783 11.7045C10.5783 12.1439 10.2466 12.5 9.83751 12.5H4.79945C4.39034 12.5 4.05869 12.1439 4.05869 11.7045ZM4.05869 14.8864C4.05869 14.447 4.39034 14.0909 4.79945 14.0909H9.83751C10.2466 14.0909 10.5783 14.447 10.5783 14.8864C10.5783 15.3257 10.2466 15.6818 9.83751 15.6818H4.79945C4.39034 15.6818 4.05869 15.3257 4.05869 14.8864ZM1.93731 18.1818H12.943V1.81818H1.93731V18.1818ZM13.7896 0H1.09073C0.623202 0 0.244141 0.407045 0.244141 0.909091V19.0909C0.244141 19.593 0.623202 20 1.09073 20H13.7896C14.2571 20 14.6362 19.593 14.6362 19.0909V0.909091C14.6362 0.407045 14.2571 0 13.7896 0Z" fill="#004C91"/>
</svg>
