<svg width="16" height="20" viewBox="0 0 16 20" fill="none" xmlns="http://www.w3.org/2000/svg">
<path fill-rule="evenodd" clip-rule="evenodd" d="M3.89432 5.68182C3.89432 5.17977 4.30137 4.77273 4.80341 4.77273H10.7909C11.293 4.77273 11.7 5.17977 11.7 5.68182C11.7 6.18386 11.293 6.59091 10.7909 6.59091H4.80341C4.30137 6.59091 3.89432 6.18386 3.89432 5.68182ZM3.89429 9.99893C3.89429 9.49689 4.30133 9.08984 4.80338 9.08984H10.7909C11.2929 9.08984 11.7 9.49689 11.7 9.99893C11.7 10.501 11.2929 10.908 10.7909 10.908H4.80338C4.30133 10.908 3.89429 10.501 3.89429 9.99893ZM3.75439 14.3192C3.75439 13.8172 4.16144 13.4102 4.66349 13.4102H10.791C11.293 13.4102 11.7001 13.8172 11.7001 14.3192C11.7001 14.8213 11.293 15.2283 10.791 15.2283H4.66349C4.16144 15.2283 3.75439 14.8213 3.75439 14.3192ZM1.81812 18.18H13.6363V1.81641H1.81812V18.18ZM14.5455 0H0.909091C0.407045 0 0 0.407045 0 0.909091V19.0909C0 19.593 0.407045 20 0.909091 20H14.5455C15.0475 20 15.4545 19.593 15.4545 19.0909V0.909091C15.4545 0.407045 15.0475 0 14.5455 0Z"  />
</svg>
