<svg width="20" height="20" viewBox="0 0 20 20" fill="none" xmlns="http://www.w3.org/2000/svg">
<path fill-rule="evenodd" clip-rule="evenodd" d="M10 20C4.47715 20 0 15.5228 0 10C0 4.47715 4.47715 0 10 0C15.5228 0 20 4.47715 20 10C20 15.5228 15.5228 20 10 20ZM10 1.66667C5.39763 1.66667 1.66667 5.39763 1.66667 10C1.66667 14.6024 5.39763 18.3333 10 18.3333C14.6024 18.3333 18.3333 14.6024 18.3333 10C18.3333 5.39763 14.6024 1.66667 10 1.66667Z" />
<path fill-rule="evenodd" clip-rule="evenodd" d="M8.07292 14.6666C7.88126 14.6666 7.68942 14.5936 7.54293 14.4473L4.2201 11.1293C3.92694 10.8366 3.9266 10.3618 4.21927 10.0686C4.51194 9.77563 4.98693 9.7753 5.27993 10.068L8.07292 12.8568L14.7201 6.21948C15.0131 5.92648 15.4879 5.92698 15.7807 6.22015C16.0734 6.51331 16.0731 6.98814 15.7799 7.28081L8.60292 14.4473C8.45642 14.5936 8.26459 14.6666 8.07292 14.6666Z" />
</svg>
