<svg width="29" height="27" viewBox="0 0 29 27" fill="none" xmlns="http://www.w3.org/2000/svg">
<path d="M27.5501 26.3377H1.44998C1.17998 26.3377 1 26.1577 1 25.8877C1 25.6177 1.17998 25.4377 1.44998 25.4377H27.55C27.82 25.4377 28 25.6177 28 25.8877C28.0001 26.1577 27.8201 26.3377 27.5501 26.3377Z" fill="#22232B" fill-opacity="0.5"/>
<path d="M27.5501 26.5877H1.44998C1.25818 26.5877 1.07891 26.5227 0.946965 26.3907C0.81502 26.2588 0.75 26.0795 0.75 25.8877C0.75 25.6959 0.81502 25.5167 0.946965 25.3847C1.07891 25.2528 1.25818 25.1877 1.44998 25.1877H27.55C27.7418 25.1877 27.9211 25.2528 28.053 25.3847C28.185 25.5166 28.25 25.6959 28.25 25.8877L27.5501 26.5877ZM27.5501 26.5877C27.7419 26.5877 27.9212 26.5227 28.0531 26.3907M27.5501 26.5877L28.0531 26.3907M28.0531 26.3907C28.185 26.2588 28.25 26.0795 28.25 25.8877L28.0531 26.3907Z" stroke="#22232B" stroke-opacity="0.5" stroke-width="0.5"/>
<path d="M7.29845 24.3377H1.89844V17.1377H7.29845V24.3377ZM2.7984 23.4377H6.39843V18.0377H2.7984V23.4377Z" fill="#22232B" fill-opacity="0.5"/>
<path d="M7.29845 24.5877H7.54845V24.3377V17.1377V16.8877H7.29845H1.89844H1.64844V17.1377V24.3377V24.5877H1.89844H7.29845ZM6.14843 23.1877H3.0484V18.2877H6.14843V23.1877Z" stroke="#22232B" stroke-opacity="0.5" stroke-width="0.5"/>
<path d="M14.0484 24.3389H8.64844V13.0889H14.0484V24.3389ZM9.5484 23.4389H13.1484V13.9889H9.5484V23.4389Z" fill="#22232B" fill-opacity="0.5"/>
<path d="M14.0484 24.5889H14.2984V24.3389V13.0889V12.8389H14.0484H8.64844H8.39844V13.0889V24.3389V24.5889H8.64844H14.0484ZM12.8984 23.1889H9.7984V14.2389H12.8984V23.1889Z" stroke="#22232B" stroke-opacity="0.5" stroke-width="0.5"/>
<path d="M20.7984 24.3383H15.3984V9.48828H20.7984V24.3383ZM16.2984 23.4383H19.8984V10.3882H16.2984V23.4383Z" fill="#22232B" fill-opacity="0.5"/>
<path d="M20.7984 24.5883H21.0484V24.3383V9.48828V9.23828H20.7984H15.3984H15.1484V9.48828V24.3383V24.5883H15.3984H20.7984ZM19.6484 23.1883H16.5484V10.6382H19.6484V23.1883Z" stroke="#22232B" stroke-opacity="0.5" stroke-width="0.5"/>
<path d="M27.5504 24.3377H22.1504V5.8877H27.5504V24.3377ZM23.0504 23.4377H26.6504V6.78771H23.0504V23.4377Z" fill="#22232B" fill-opacity="0.5"/>
<path d="M27.5504 24.5877H27.8004V24.3377V5.8877V5.6377H27.5504H22.1504H21.9004V5.8877V24.3377V24.5877H22.1504H27.5504ZM26.4004 23.1877H23.3004V7.03771H26.4004V23.1877Z" stroke="#22232B" stroke-opacity="0.5" stroke-width="0.5"/>
<path d="M4.60124 11.9729C4.46624 11.9729 4.28626 11.8829 4.19624 11.7479C4.06124 11.5228 4.15126 11.2528 4.37622 11.1178L20.7113 1.71286L18.2363 1.48784C18.0112 1.44286 17.7863 1.26282 17.8313 0.992821C17.8762 0.767803 18.0563 0.542837 18.3263 0.58782L22.1513 0.947838C22.1963 0.947838 22.1963 0.947838 22.2413 0.947838C22.2863 0.947838 22.3313 0.992821 22.3763 0.992821L22.4213 1.0378C22.4663 1.08279 22.4663 1.08279 22.5113 1.12782C22.5113 1.1728 22.5563 1.21784 22.5563 1.26282C22.5563 1.3078 22.5563 1.3078 22.5563 1.35284C22.5563 1.39782 22.5563 1.44286 22.5563 1.48784C22.5563 1.53282 22.5563 1.53282 22.5113 1.57786L20.8913 5.08786C20.8013 5.31288 20.5313 5.40285 20.3063 5.31288C20.0813 5.22286 19.9913 4.95286 20.0813 4.7279L21.1163 2.47788L4.82626 11.9279C4.78122 11.9729 4.6912 11.9729 4.60124 11.9729Z" fill="#22232B" fill-opacity="0.5"/>
<path d="M3.98186 11.8765L3.98162 11.8766L3.98824 11.8866C4.06035 11.9947 4.16186 12.0765 4.26333 12.1311C4.36365 12.1851 4.48301 12.2229 4.60124 12.2229L4.60743 12.2229C4.64795 12.2229 4.70854 12.2229 4.76593 12.2147C4.81574 12.2076 4.89788 12.1902 4.97125 12.1328L20.5596 3.08984L19.8542 4.62342L19.8539 4.62329L19.8492 4.63507C19.7173 4.96491 19.8381 5.39485 20.2134 5.545L20.2135 5.54501C20.5414 5.67613 20.9681 5.55748 21.1207 5.18741L22.7204 1.72135C22.7214 1.72032 22.7223 1.71929 22.7232 1.71826C22.7354 1.70466 22.7568 1.67962 22.7743 1.64458C22.7939 1.60527 22.8014 1.56852 22.8043 1.53942C22.8064 1.51907 22.8063 1.49832 22.8063 1.48986L22.8063 1.48784V1.48758V1.48731V1.48705V1.48678V1.48652V1.48626V1.48599V1.48573V1.48547V1.4852V1.48494V1.48468V1.48441V1.48415V1.48389V1.48362V1.48336V1.48309V1.48283V1.48257V1.4823V1.48204V1.48178V1.48151V1.48125V1.48099V1.48072V1.48046V1.4802V1.47993V1.47967V1.4794V1.47914V1.47888V1.47861V1.47835V1.47809V1.47782V1.47756V1.4773V1.47703V1.47677V1.4765V1.47624V1.47598V1.47571V1.47545V1.47519V1.47492V1.47466V1.4744V1.47413V1.47387V1.4736V1.47334V1.47308V1.47281V1.47255V1.47229V1.47202V1.47176V1.4715V1.47123V1.47097V1.4707V1.47044V1.47018V1.46991V1.46965V1.46939V1.46912V1.46886V1.4686V1.46833V1.46807V1.4678V1.46754V1.46728V1.46701V1.46675V1.46649V1.46622V1.46596V1.4657V1.46543V1.46517V1.4649V1.46464V1.46438V1.46411V1.46385V1.46359V1.46332V1.46306V1.4628V1.46253V1.46227V1.462V1.46174V1.46148V1.46121V1.46095V1.46069V1.46042V1.46016V1.45989V1.45963V1.45937V1.4591V1.45884V1.45858V1.45831V1.45805V1.45779V1.45752V1.45726V1.45699V1.45673V1.45647V1.4562V1.45594V1.45568V1.45541V1.45515V1.45489V1.45462V1.45436V1.45409V1.45383V1.45357V1.4533V1.45304V1.45278V1.45251V1.45225V1.45198V1.45172V1.45146V1.45119V1.45093V1.45067V1.4504V1.45014V1.44987V1.44961V1.44935V1.44908V1.44882V1.44856V1.44829V1.44803V1.44777V1.4475V1.44724V1.44697V1.44671V1.44645V1.44618V1.44592V1.44566V1.44539V1.44513V1.44486V1.4446V1.44434V1.44407V1.44381V1.44355V1.44328V1.44302V1.44276V1.44249V1.44223V1.44196V1.4417V1.44144V1.44117V1.44091V1.44065V1.44038V1.44012V1.43985V1.43959V1.43933V1.43906V1.4388V1.43854V1.43827V1.43801V1.43774V1.43748V1.43722V1.43695V1.43669V1.43643V1.43616V1.4359V1.43563V1.43537V1.43511V1.43484V1.43458V1.43432V1.43405V1.43379V1.43353V1.43326V1.433V1.43273V1.43247V1.43221V1.43194V1.43168V1.43142V1.43115V1.43089V1.43062V1.43036V1.4301V1.42983V1.42957V1.42931V1.42904V1.42878V1.42851V1.42825V1.42799V1.42772V1.42746V1.4272V1.42693V1.42667V1.4264V1.42614V1.42588V1.42561V1.42535V1.42509V1.42482V1.42456V1.42429V1.42403V1.42377V1.4235V1.42324V1.42298V1.42271V1.42245V1.42219V1.42192V1.42166V1.42139V1.42113V1.42087V1.4206V1.42034V1.42008V1.41981V1.41955V1.41928V1.41902V1.41876V1.41849V1.41823V1.41797V1.4177V1.41744V1.41717V1.41691V1.41665V1.41638V1.41612V1.41586V1.41559V1.41533V1.41506V1.4148V1.41454V1.41427V1.41401V1.41375V1.41348V1.41322V1.41295V1.41269V1.41243V1.41216V1.4119V1.41164V1.41137V1.41111V1.41084V1.41058V1.41032V1.41005V1.40979V1.40953V1.40926V1.409V1.40874V1.40847V1.40821V1.40794V1.40768V1.40742V1.40715V1.40689V1.40663V1.40636V1.4061V1.40583V1.40557V1.40531V1.40504V1.40478V1.40452V1.40425V1.40399V1.40372V1.40346V1.4032V1.40293V1.40267V1.40241V1.40214V1.40188V1.40161V1.40135V1.40109V1.40082V1.40056V1.4003V1.40003V1.39977V1.39951V1.39924V1.39898V1.39871V1.39845V1.39819V1.39792V1.39766V1.3974V1.39713V1.39687V1.3966V1.39634V1.39608V1.39581V1.39555V1.39529V1.39502V1.39476V1.39449V1.39423V1.39397V1.3937V1.39344V1.39318V1.39291V1.39265V1.39239V1.39212V1.39186V1.39159V1.39133V1.39107V1.3908V1.39054V1.39028V1.39001V1.38975V1.38948V1.38922V1.38896V1.38869V1.38843V1.38817V1.3879V1.38764V1.38737V1.38711V1.38685V1.38658V1.38632V1.38606V1.38579V1.38553V1.38527V1.385V1.38474V1.38447V1.38421V1.38395V1.38368V1.38342V1.38316V1.38289V1.38263V1.38237V1.3821V1.38184V1.38157V1.38131V1.38105V1.38078V1.38052V1.38026V1.37999V1.37973V1.37946V1.3792V1.37894V1.37867V1.37841V1.37815V1.37788V1.37762V1.37736V1.37709V1.37683V1.37656V1.3763V1.37604V1.37577V1.37551V1.37525V1.37498V1.37472V1.37446V1.37419V1.37393V1.37366V1.3734V1.37314V1.37287V1.37261V1.37235V1.37208V1.37182V1.37155V1.37129V1.37103V1.37076V1.3705V1.37024V1.36997V1.36971V1.36945V1.36918V1.36892V1.36865V1.36839V1.36813V1.36786V1.3676V1.36734V1.36707V1.36681V1.36655V1.36628V1.36602V1.36576V1.36549V1.36523V1.36496V1.3647V1.36444V1.36417V1.36391V1.36365V1.36338V1.36312V1.36286V1.36259V1.36233V1.36206V1.3618V1.36154V1.36127V1.36101V1.36075V1.36048V1.36022V1.35996V1.35969V1.35943V1.35916V1.3589V1.35864V1.35837V1.35811V1.35785V1.35758V1.35732V1.35706V1.35679V1.35653V1.35627V1.356V1.35574V1.35547V1.35521V1.35495V1.35468V1.35442V1.35416V1.35389V1.35363V1.35337V1.3531V1.35284V1.35258V1.35231V1.35205V1.35179V1.35153V1.35127V1.35102V1.35076V1.35051V1.35025V1.35V1.34975V1.34949V1.34924V1.34899V1.34875V1.3485V1.34825V1.34801V1.34776V1.34752V1.34728V1.34703V1.34679V1.34655V1.34631V1.34608V1.34584V1.3456V1.34537V1.34513V1.3449V1.34467V1.34444V1.34421V1.34398V1.34375V1.34352V1.34329V1.34307V1.34284V1.34262V1.34239V1.34217V1.34195V1.34173V1.34151V1.34129V1.34107V1.34085V1.34063V1.34042V1.3402V1.33999V1.33977V1.33956V1.33935V1.33914V1.33893V1.33872V1.33851V1.3383V1.33809V1.33789V1.33768V1.33748V1.33727V1.33707V1.33686V1.33666V1.33646V1.33626V1.33606V1.33586V1.33566V1.33547V1.33527V1.33507V1.33488V1.33468V1.33449V1.3343V1.3341V1.33391V1.33372V1.33353V1.33334V1.33315V1.33296V1.33278V1.33259V1.3324V1.33222V1.33203V1.33185V1.33166V1.33148V1.3313V1.33112V1.33093V1.33075V1.33057V1.33039V1.33022V1.33004V1.32986V1.32968V1.32951V1.32933V1.32916V1.32898V1.32881V1.32863V1.32846V1.32829V1.32812V1.32795V1.32778V1.32761V1.32744V1.32727V1.3271V1.32693V1.32676V1.3266V1.32643V1.32627V1.3261V1.32594V1.32577V1.32561V1.32544V1.32528V1.32512V1.32496V1.3248V1.32464V1.32448V1.32432V1.32416V1.324V1.32384V1.32368V1.32352V1.32337V1.32321V1.32306V1.3229V1.32274V1.32259V1.32244V1.32228V1.32213V1.32197V1.32182V1.32167V1.32152V1.32137V1.32122V1.32107V1.32091V1.32076V1.32062V1.32047V1.32032V1.32017V1.32002V1.31987V1.31973V1.31958V1.31943V1.31929V1.31914V1.31899V1.31885V1.3187V1.31856V1.31842V1.31827V1.31813V1.31798V1.31784V1.3177V1.31756V1.31741V1.31727V1.31713V1.31699V1.31685V1.31671V1.31657V1.31643V1.31629V1.31615V1.31601V1.31587V1.31573V1.31559V1.31545V1.31531V1.31518V1.31504V1.3149V1.31476V1.31462V1.31449V1.31435V1.31421V1.31408V1.31394V1.31381V1.31367V1.31353V1.3134V1.31326V1.31313V1.31299V1.31286V1.31272V1.31259V1.31245V1.31232V1.31219V1.31205V1.31192V1.31178V1.31165V1.31152V1.31138V1.31125V1.31112V1.31098V1.31085V1.31072V1.31059V1.31045V1.31032V1.31019V1.31006V1.30992V1.30979V1.30966V1.30953V1.30939V1.30926V1.30913V1.309V1.30887V1.30873V1.3086V1.30847V1.30834V1.30821V1.30807V1.30794V1.30781V1.30768V1.30755V1.30741V1.30728V1.30715V1.30702V1.30689V1.30675V1.30662V1.30649V1.30636V1.30623V1.30609V1.30596V1.30583V1.3057V1.30557V1.30543V1.3053V1.30517V1.30503V1.3049V1.30477V1.30464V1.3045V1.30437V1.30424V1.3041V1.30397V1.30384V1.3037V1.30357V1.30343V1.3033V1.30317V1.30303V1.3029V1.30276V1.30263V1.30249V1.30236V1.30222V1.30209V1.30195V1.30182V1.30168V1.30154V1.30141V1.30127V1.30113V1.301V1.30086V1.30072V1.30058V1.30045V1.30031V1.30017V1.30003V1.29989V1.29975V1.29962V1.29948V1.29934V1.2992V1.29906V1.29892V1.29878V1.29863V1.29849V1.29835V1.29821V1.29807V1.29792V1.29778V1.29764V1.2975V1.29735V1.29721V1.29706V1.29692V1.29677V1.29663V1.29648V1.29634V1.29619V1.29605V1.2959V1.29575V1.2956V1.29546V1.29531V1.29516V1.29501V1.29486V1.29471V1.29456V1.29441V1.29426V1.29411V1.29396V1.2938V1.29365V1.2935V1.29335V1.29319V1.29304V1.29288V1.29273V1.29257V1.29242V1.29226V1.2921V1.29195V1.29179V1.29163V1.29147V1.29131V1.29115V1.29099V1.29083V1.29067V1.29051V1.29035V1.29019V1.29002V1.28986V1.28969V1.28953V1.28937V1.2892V1.28903V1.28887V1.2887V1.28853V1.28836V1.2882V1.28803V1.28786V1.28769V1.28751V1.28734V1.28717V1.287V1.28683V1.28665V1.28648V1.2863V1.28613V1.28595V1.28577V1.2856V1.28542V1.28524V1.28506V1.28488V1.2847V1.28452V1.28434V1.28416V1.28397V1.28379V1.2836V1.28342V1.28323V1.28305V1.28286V1.28267V1.28249V1.2823V1.28211V1.28192V1.28173V1.28153V1.28134V1.28115V1.28096V1.28076V1.28057V1.28037V1.28017V1.27998V1.27978V1.27958V1.27938V1.27918V1.27898V1.27878V1.27857V1.27837V1.27817V1.27796V1.27776V1.27755V1.27734V1.27714V1.27693V1.27672V1.27651V1.2763V1.27608V1.27587V1.27566V1.27544V1.27523V1.27501V1.2748V1.27458V1.27436V1.27414V1.27392V1.2737V1.27348V1.27326V1.27303V1.27281V1.27258V1.27236V1.27213V1.2719V1.27167V1.27144V1.27121V1.27098V1.27075V1.27052V1.27028V1.27005V1.26981V1.26958V1.26934V1.2691V1.26886V1.26862V1.26838V1.26814V1.26789V1.26765V1.2674V1.26716V1.26691V1.26666V1.26641V1.26616V1.26591V1.26566V1.26541V1.26515V1.2649V1.26464V1.26438V1.26413V1.26387V1.26361V1.26335V1.26308V1.26282C22.8063 1.21063 22.7934 1.16809 22.7833 1.14133C22.7758 1.12124 22.7669 1.10271 22.7613 1.09132V1.02427L22.6881 0.951046L22.5981 0.861026L22.4213 1.0378L22.5981 0.861025L22.5531 0.816043L22.4798 0.742821H22.4128C22.4014 0.737175 22.3829 0.728295 22.3628 0.720765C22.336 0.710723 22.2935 0.697838 22.2413 0.697838H22.241H22.2408H22.2405H22.2402H22.24H22.2397H22.2395H22.2392H22.239H22.2387H22.2384H22.2382H22.2379H22.2377H22.2374H22.2372H22.2369H22.2367H22.2365H22.2362H22.236H22.2357H22.2355H22.2352H22.235H22.2348H22.2345H22.2343H22.2341H22.2338H22.2336H22.2334H22.2331H22.2329H22.2327H22.2324H22.2322H22.232H22.2317H22.2315H22.2313H22.2311H22.2308H22.2306H22.2304H22.2302H22.23H22.2297H22.2295H22.2293H22.2291H22.2289H22.2287H22.2284H22.2282H22.228H22.2278H22.2276H22.2274H22.2272H22.227H22.2268H22.2265H22.2263H22.2261H22.2259H22.2257H22.2255H22.2253H22.2251H22.2249H22.2247H22.2245H22.2243H22.2241H22.2239H22.2237H22.2235H22.2233H22.2231H22.2229H22.2227H22.2226H22.2224H22.2222H22.222H22.2218H22.2216H22.2214H22.2212H22.221H22.2209H22.2207H22.2205H22.2203H22.2201H22.2199H22.2197H22.2196H22.2194H22.2192H22.219H22.2188H22.2187H22.2185H22.2183H22.2181H22.218H22.2178H22.2176H22.2174H22.2173H22.2171H22.2169H22.2167H22.2166H22.2164H22.2162H22.2161H22.2159H22.2157H22.2156H22.2154H22.2152H22.215H22.2149H22.2147H22.2146H22.2144H22.2142H22.2141H22.2139H22.2137H22.2136H22.2134H22.2132H22.2131H22.2129H22.2128H22.2126H22.2125H22.2123H22.2121H22.212H22.2118H22.2117H22.2115H22.2114H22.2112H22.211H22.2109H22.2107H22.2106H22.2104H22.2103H22.2101H22.21H22.2098H22.2097H22.2095H22.2094H22.2092H22.2091H22.2089H22.2088H22.2086H22.2085H22.2083H22.2082H22.208H22.2079H22.2077H22.2076H22.2074H22.2073H22.2072H22.207H22.2069H22.2067H22.2066H22.2064H22.2063H22.2062H22.206H22.2059H22.2057H22.2056H22.2054H22.2053H22.2052H22.205H22.2049H22.2047H22.2046H22.2045H22.2043H22.2042H22.204H22.2039H22.2038H22.2036H22.2035H22.2034H22.2032H22.2031H22.2029H22.2028H22.2027H22.2025H22.2024H22.2023H22.2021H22.202H22.2019H22.2017H22.2016H22.2014H22.2013H22.2012H22.201H22.2009H22.2008H22.2006H22.2005H22.2004H22.2002H22.2001H22.2H22.1998H22.1997H22.1996H22.1994H22.1993H22.1992H22.199H22.1989H22.1988H22.1986H22.1985H22.1984H22.1982H22.1981H22.198H22.1978H22.1977H22.1976H22.1975H22.1973H22.1972H22.1971H22.1969H22.1968H22.1967H22.1965H22.1964H22.1963H22.1961H22.196H22.1959H22.1957H22.1956H22.1955H22.1953H22.1952H22.1951H22.1949H22.1948H22.1947H22.1945H22.1944H22.1943H22.1942H22.194H22.1939H22.1938H22.1936H22.1935H22.1934H22.1932H22.1931H22.193H22.1928H22.1927H22.1926H22.1924H22.1923H22.1922H22.192H22.1919H22.1918H22.1916H22.1915H22.1914H22.1912H22.1911H22.1909H22.1908H22.1907H22.1905H22.1904H22.1903H22.1901H22.19H22.1899H22.1897H22.1896H22.1894H22.1893H22.1892H22.189H22.1889H22.1888H22.1886H22.1885H22.1883H22.1882H22.1881H22.1879H22.1878H22.1876H22.1875H22.1874H22.1872H22.1871H22.1869H22.1868H22.1867H22.1865H22.1864H22.1862H22.1861H22.1859H22.1858H22.1857H22.1855H22.1854H22.1852H22.1851H22.1849H22.1848H22.1846H22.1845H22.1844H22.1842H22.1841H22.1839H22.1838H22.1836H22.1835H22.1833H22.1832H22.183H22.1829H22.1827H22.1826H22.1824H22.1823H22.1821H22.182H22.1818H22.1816H22.1815H22.1813H22.1812H22.181H22.1809H22.1807H22.1806H22.1804H22.1802H22.1801H22.1799H22.1798H22.1796H22.1794H22.1793H22.1791H22.179H22.1788H22.1786H22.1785H22.1783H22.1781H22.178H22.1778H22.1777H22.1775H22.1773H22.1772H22.177H22.1768H22.1766H22.1765H22.1763H22.1761H22.176H22.1758H22.1756H22.1755H22.1753H22.1751H22.1749H22.1748H22.1746H22.1744H22.1742H22.174H22.1739H22.1737H22.1735H22.1733H22.1732H22.173H22.1728H22.1726H22.1724H22.1722H22.1721H22.1719H22.1717H22.1715H22.1713H22.1711H22.1709H22.1707H22.1706H22.1704H22.1702H22.17H22.1698H22.1696H22.1694H22.1692H22.169H22.1688H22.1686H22.1684H22.1682H22.168H22.1678H22.1676H22.1674H22.1672H22.167H22.1668H22.1666H22.1664H22.1662H22.166H22.1658H22.1656H22.1654H22.1652H22.165H22.1647H22.1645H22.1643H22.1641H22.1639H22.1637H22.1635H22.1632H22.163H22.1628L18.3576 0.339663C18.1412 0.306745 17.9561 0.382902 17.8238 0.506295C17.6954 0.626153 17.6172 0.788399 17.5861 0.943814L17.586 0.943789L17.5847 0.951736C17.5479 1.17231 17.6245 1.36107 17.7497 1.49528C17.8696 1.62372 18.0318 1.70192 18.1873 1.73299L18.2003 1.7356L18.2136 1.73681L19.902 1.89031L4.25148 10.9012L4.25146 10.9011L4.24758 10.9035C3.92346 11.098 3.76483 11.5147 3.98186 11.8765Z" stroke="#22232B" stroke-opacity="0.5" stroke-width="0.5"/>
</svg>
