<svg width="10" height="7" viewBox="0 0 10 7" fill="none" xmlns="http://www.w3.org/2000/svg">
<path fill-rule="evenodd" clip-rule="evenodd" d="M9.17238 3.5C9.17238 3.7666 8.95623 3.98276 8.68962 3.98276H1.64606L3.83368 6.17629C4.02195 6.36517 4.02159 6.67076 3.83283 6.85903C3.73857 6.95305 3.61523 7 3.49188 7C3.36818 7 3.24435 6.95269 3.15009 6.85819L0.140935 3.84095C-0.0469785 3.65243 -0.0469785 3.34757 0.140935 3.15905L3.15009 0.141811C3.33837 -0.0469479 3.64395 -0.04731 3.83283 0.140966C4.02159 0.329242 4.02195 0.634828 3.83368 0.823707L1.64606 3.01724H8.68962C8.95623 3.01724 9.17238 3.2334 9.17238 3.5Z"/>
</svg>
