<svg width="10" height="10" viewBox="0 0 10 10" fill="none" xmlns="http://www.w3.org/2000/svg">
<path fill-rule="evenodd" clip-rule="evenodd" d="M8.89833 4.42307C9.21689 4.42307 9.47526 4.68144 9.47526 5C9.47526 5.15937 9.41071 5.30351 9.30627 5.40795C9.20184 5.51238 9.0577 5.57693 8.89833 5.57693L5.57708 5.57693L5.57708 8.89817C5.57708 9.05754 5.51254 9.20168 5.4081 9.30612C5.30367 9.41055 5.15953 9.4751 5.00016 9.4751C4.68159 9.4751 4.42323 9.21673 4.42323 8.89817L4.42323 5.57693L1.10198 5.57693C0.783422 5.57693 0.525054 5.31856 0.525054 5C0.525145 4.68135 0.783331 4.42316 1.10198 4.42307L4.42323 4.42307L4.42323 1.10183C4.42332 0.783176 4.6815 0.52499 5.00016 0.524899C5.31872 0.524899 5.57708 0.783266 5.57708 1.10183L5.57708 4.42307L8.89833 4.42307Z" />
</svg>
