<svg width="20" height="20" viewBox="0 0 20 20" fill="none" xmlns="http://www.w3.org/2000/svg">
<path fill-rule="evenodd" clip-rule="evenodd" d="M2.12769 17.8726H15.8739V4.12754H2.12769V17.8726ZM16.9366 20H1.06345C0.476238 20 0 19.5239 0 18.9365V3.06381C0 2.4764 0.476238 2 1.06345 2H16.9366C17.5238 2 18 2.4764 18 3.06381V18.9365C18 19.5239 17.5238 20 16.9366 20Z" />
<path d="M7.72222 1H20V13L3 17L7.72222 1Z" />
<path fill-rule="evenodd" clip-rule="evenodd" d="M19.5943 2.36897L16.969 4.99988L19.5943 7.63119C20.1383 8.17643 20.1347 9.05605 19.5868 9.59692C19.314 9.86577 18.9582 10 18.6024 10C18.2425 10 17.8831 9.86299 17.61 9.58938L15.0002 6.97356L12.39 9.58938C12.1169 9.86299 11.7571 10 11.398 10C11.0418 10 10.686 9.86577 10.4132 9.59692C9.86533 9.05605 9.86174 8.17643 10.4057 7.63119L13.031 4.99988L10.4057 2.36897C9.86174 1.82373 9.86533 0.944111 10.4132 0.403236C10.9616 -0.137243 11.8465 -0.133669 12.39 0.410781L15.0002 3.0266L17.61 0.410781C18.1539 -0.133669 19.0388 -0.13764 19.5868 0.403236C20.1347 0.944111 20.1383 1.82373 19.5943 2.36897Z" />
</svg>
