<svg width="10" height="14" viewBox="0 0 10 14" fill="none" xmlns="http://www.w3.org/2000/svg">
<path fill-rule="evenodd" clip-rule="evenodd" d="M9.79862 5.47547C9.66397 5.61047 9.48707 5.67806 9.31034 5.67806C9.13414 5.67806 8.95793 5.61099 8.82327 5.47668L5.68965 2.35151V12.4137C5.68965 12.7946 5.38086 13.1034 5 13.1034C4.61914 13.1034 4.31034 12.7946 4.31034 12.4137V2.35151L1.17655 5.47668C0.906897 5.74582 0.470345 5.74513 0.20138 5.47547C-0.0675857 5.20582 -0.0670684 4.76909 0.202587 4.50013L4.51293 0.201336C4.78224 -0.0671121 5.21776 -0.0671121 5.48707 0.201336L9.79741 4.50013C10.0671 4.76909 10.0676 5.20582 9.79862 5.47547Z"/>
</svg>
