<svg width="20" height="20" viewBox="0 0 20 20" fill="none" xmlns="http://www.w3.org/2000/svg">
<path fill-rule="evenodd" clip-rule="evenodd" d="M10 20C4.47715 20 0 15.5228 0 10C0 4.47715 4.47715 0 10 0C15.5228 0 20 4.47715 20 10C20 15.5228 15.5228 20 10 20ZM10 1.66667C5.39763 1.66667 1.66667 5.39763 1.66667 10C1.66667 14.6024 5.39763 18.3333 10 18.3333C14.6024 18.3333 18.3333 14.6024 18.3333 10C18.3333 5.39763 14.6024 1.66667 10 1.66667Z" />
<path fill-rule="evenodd" clip-rule="evenodd" d="M15 10.0943C15 10.5632 14.6198 10.9434 14.1509 10.9434H10.7547V14.1509C10.7547 14.6198 10.3745 15 9.90566 15C9.43679 15 9.0566 14.6198 9.0566 14.1509V10.9434H5.84906C5.38019 10.9434 5 10.5632 5 10.0943C5 9.62547 5.38019 9.24528 5.84906 9.24528H9.0566V5.84906C9.0566 5.38019 9.43679 5 9.90566 5C10.3745 5 10.7547 5.38019 10.7547 5.84906V9.24528H14.1509C14.6198 9.24528 15 9.62547 15 10.0943Z" />
</svg>
