<svg width="10" height="14" viewBox="0 0 10 14" fill="none" xmlns="http://www.w3.org/2000/svg">
<path fill-rule="evenodd" clip-rule="evenodd" d="M0.20138 7.62792C0.336035 7.49292 0.512932 7.42533 0.689656 7.42533C0.865863 7.42533 1.04207 7.4924 1.17673 7.62671L4.31035 10.7519L4.31035 0.689646C4.31035 0.308784 4.61914 -9.53674e-06 5 -9.53674e-06C5.38086 -9.53674e-06 5.68966 0.308784 5.68966 0.689646L5.68966 10.7519L8.82345 7.62671C9.0931 7.35758 9.52965 7.35826 9.79862 7.62792C10.0676 7.89758 10.0671 8.3343 9.79741 8.60326L5.48707 12.9021C5.21776 13.1705 4.78224 13.1705 4.51293 12.9021L0.202587 8.60326C-0.0670681 8.3343 -0.0675859 7.89758 0.20138 7.62792Z"/>
</svg>
