<svg width="22" height="22" viewBox="0 0 22 22" fill="none" xmlns="http://www.w3.org/2000/svg">
<path d="M2.45833 14.3833H19.5417C20.3734 14.3833 21.05 13.7068 21.05 12.875V2.45833C21.05 1.62655 20.3734 0.95 19.5417 0.95H2.45833C1.62655 0.95 0.95 1.62655 0.95 2.45833V12.875C0.95 13.7068 1.62655 14.3833 2.45833 14.3833ZM2.3 2.45833C2.3 2.37095 2.37095 2.3 2.45833 2.3H19.5417C19.6291 2.3 19.7 2.37095 19.7 2.45833V12.875C19.7 12.9624 19.6291 13.0333 19.5417 13.0333H2.45833C2.37095 13.0333 2.3 12.9624 2.3 12.875V2.45833Z" />
<path d="M8.03203 20.3763C8.03203 20.7489 8.33442 21.0513 8.70703 21.0513C9.07965 21.0513 9.38203 20.7489 9.38203 20.3763V13.918C9.38203 13.5454 9.07965 13.243 8.70703 13.243C8.33442 13.243 8.03203 13.5454 8.03203 13.918V20.3763Z" />
<path d="M12.618 20.3763C12.618 20.7489 12.9204 21.0513 13.293 21.0513C13.6656 21.0513 13.968 20.7489 13.968 20.3763V13.918C13.968 13.5454 13.6656 13.243 13.293 13.243C12.9204 13.243 12.618 13.5454 12.618 13.918V20.3763Z"/>
<path d="M9.95703 10.218H10.582C11.988 10.218 13.132 9.07392 13.132 7.66797C13.132 6.26202 11.988 5.11797 10.582 5.11797H9.95703C9.58442 5.11797 9.28203 5.42035 9.28203 5.79297V9.54297C9.28203 9.91558 9.58442 10.218 9.95703 10.218ZM11.782 7.66797C11.782 8.31277 11.2705 8.84063 10.632 8.86694V6.469C11.2705 6.49531 11.782 7.02316 11.782 7.66797Z" />
<path d="M6.36536 9.54297C6.36536 9.91558 6.66775 10.218 7.04036 10.218C7.41297 10.218 7.71536 9.91558 7.71536 9.54297V6.83464C7.71536 5.88785 6.94547 5.11797 5.99869 5.11797C5.05192 5.11797 4.28203 5.88785 4.28203 6.83464V9.54297C4.28203 9.91558 4.58442 10.218 4.95703 10.218C5.32964 10.218 5.63203 9.91558 5.63203 9.54297V6.83464C5.63203 6.63225 5.79631 6.46797 5.99869 6.46797C6.20108 6.46797 6.36536 6.63225 6.36536 6.83464V9.54297Z" />
<path d="M4.95703 8.96797H7.04036C7.41297 8.96797 7.71536 8.66558 7.71536 8.29297C7.71536 7.92035 7.41297 7.61797 7.04036 7.61797H4.95703C4.58442 7.61797 4.28203 7.92035 4.28203 8.29297C4.28203 8.66558 4.58442 8.96797 4.95703 8.96797Z" />
<path d="M14.957 10.218H16.172C17.0251 10.218 17.7154 9.4926 17.7154 8.60547C17.7154 7.71836 17.0251 6.99297 16.1729 6.99297H15.8254C15.7781 6.99297 15.7307 6.9674 15.6935 6.91948C15.6563 6.87167 15.632 6.80446 15.632 6.73047C15.632 6.65657 15.6565 6.58936 15.6938 6.5415C15.7312 6.49349 15.7786 6.46797 15.8254 6.46797H17.0404C17.413 6.46797 17.7154 6.16558 17.7154 5.79297C17.7154 5.42035 17.413 5.11797 17.0404 5.11797H15.8254C14.9723 5.11797 14.282 5.84334 14.282 6.73047C14.282 7.61758 14.9723 8.34297 15.8245 8.34297H16.172C16.2193 8.34297 16.2667 8.36854 16.3039 8.41646C16.341 8.46426 16.3654 8.53148 16.3654 8.60547C16.3654 8.67937 16.3409 8.74658 16.3036 8.79443C16.2662 8.84245 16.2188 8.86797 16.172 8.86797H14.957C14.5844 8.86797 14.282 9.17035 14.282 9.54297C14.282 9.91558 14.5844 10.218 14.957 10.218Z"/>
</svg>
