<svg width="26" height="32" viewBox="0 0 26 32" fill="none" xmlns="http://www.w3.org/2000/svg">
<path d="M12.9997 31.832C14.7413 31.832 16.1663 30.407 16.1663 28.6654H9.83301C9.83301 30.407 11.258 31.832 12.9997 31.832ZM22.4997 22.332V14.4154C22.4997 9.55453 19.9188 5.48536 15.3747 4.4087V3.33203C15.3747 2.01786 14.3138 0.957031 12.9997 0.957031C11.6855 0.957031 10.6247 2.01786 10.6247 3.33203V4.4087C6.09634 5.48536 3.49967 9.5387 3.49967 14.4154V22.332L0.333008 25.4987V27.082H25.6663V25.4987L22.4997 22.332ZM19.333 23.9154H6.66634V14.4154C6.66634 10.4887 9.05717 7.29036 12.9997 7.29036C16.9422 7.29036 19.333 10.4887 19.333 14.4154V23.9154Z" fill="black"/>
</svg>
