<svg width="20" height="19" viewBox="0 0 20 19" fill="none" xmlns="http://www.w3.org/2000/svg">
<path fill-rule="evenodd" clip-rule="evenodd" d="M12.6845 6.3152C12.9311 6.65542 12.8552 7.13107 12.515 7.37781C11.7208 7.95347 10.803 8.4339 10.7643 8.45412C10.6519 8.5126 10.5317 8.54043 10.4132 8.54043C10.1389 8.54043 9.87387 8.39151 9.738 8.13151C9.54365 7.7589 9.688 7.29933 10.0606 7.10477C10.0691 7.10042 10.9202 6.65433 11.6219 6.14563C11.9624 5.89911 12.4378 5.9752 12.6845 6.3152ZM18.1898 7.75414C18.0493 7.98566 17.7324 8.17349 17.4256 8.30458L16.9941 6.79088C17.3224 6.75131 17.6869 6.75392 17.9295 6.88001C18.0356 6.93501 18.1539 7.02566 18.2265 7.28023C18.2972 7.52805 18.2476 7.65892 18.1898 7.75414ZM12.0189 12.6944C11.0469 12.6944 10.061 12.785 8.90017 12.9437L7.63147 8.49304L7.31973 7.39912C10.0958 6.13781 11.5734 5.16238 13.9915 2.60215L17.0822 13.445C15.0195 12.9154 13.5367 12.6944 12.0189 12.6944ZM3.163 13.6494C2.51778 13.292 2.05017 12.702 1.84647 11.9874C1.42777 10.5185 2.27082 8.98088 3.72452 8.56001L5.68149 7.99587L6.58062 11.1511L7.19823 13.3172L5.2354 13.8831C4.5367 14.085 3.80061 14.0024 3.163 13.6494ZM19.8991 6.80347C19.7107 6.14238 19.3065 5.63499 18.7304 5.33608C17.9872 4.95064 17.1152 4.99651 16.5128 5.1026L15.2382 0.631061C15.1515 0.326494 14.9061 0.0932326 14.5974 0.0221454C14.2889 -0.0487244 13.9661 0.0532325 13.7548 0.288885C10.6415 3.75955 9.36127 4.60499 5.93626 6.11238L3.2419 6.88913C0.86972 7.57565 -0.506589 10.0767 0.174065 12.4641C0.505371 13.6265 1.26776 14.5878 2.32059 15.1709C2.99147 15.5424 3.72908 15.7313 4.4743 15.7313C4.82691 15.7313 5.18126 15.6863 5.53104 15.6009L5.82213 16.6218C5.97539 17.1594 6.27017 17.6459 6.67474 18.0287L7.12713 18.4574C7.2954 18.6168 7.5104 18.6957 7.72518 18.6957C7.95562 18.6957 8.18562 18.6046 8.35649 18.4242C8.68692 18.0755 8.67192 17.525 8.32344 17.1948L7.8704 16.7659C7.69235 16.5974 7.56235 16.3826 7.49453 16.1452L7.20387 15.1255L8.4567 14.7644C12.0643 14.2263 13.6898 14.2639 18.1022 15.5255C18.1811 15.5479 18.2613 15.5589 18.3411 15.5589C18.5685 15.5589 18.7907 15.4696 18.9559 15.3044C19.1791 15.0813 19.2641 14.7546 19.1776 14.4509L17.9048 9.98631C18.4774 9.77044 19.2409 9.36827 19.672 8.66435C20.01 8.11196 20.0887 7.46848 19.8991 6.80347Z" />
</svg>
