<svg width="20" height="20" viewBox="0 0 20 20" fill="none" xmlns="http://www.w3.org/2000/svg">
<path fill-rule="evenodd" clip-rule="evenodd" d="M19.1667 15H0.833333C0.373096 15 0 14.6269 0 14.1667C0 13.7064 0.373096 13.3333 0.833333 13.3333H2.5V6.66667C2.5 2.98477 5.48477 0 9.16667 0H10.8333C14.5152 0 17.5 2.98477 17.5 6.66667V13.3333H19.1667C19.6269 13.3333 20 13.7064 20 14.1667C20 14.6269 19.6269 15 19.1667 15ZM15.8333 7.5C15.8333 4.27834 13.2217 1.66667 10 1.66667C6.77834 1.66667 4.16667 4.27834 4.16667 7.5V13.3333H15.8333V7.5ZM9.16667 17.5C9.16667 17.9602 9.53976 18.3333 10 18.3333C10.4602 18.3333 10.8333 17.9602 10.8333 17.5V16.6667H12.5V17.5C12.5 18.8807 11.3807 20 10 20C8.61929 20 7.5 18.8807 7.5 17.5V16.6667H9.16667V17.5Z" />
</svg>
