<svg width="20" height="16" viewBox="0 0 20 16" fill="none" xmlns="http://www.w3.org/2000/svg">
<path fill-rule="evenodd" clip-rule="evenodd" d="M19.6927 8.375L13.1314 14.954C12.9258 15.16 12.6558 15.2632 12.3861 15.2632C12.1171 15.2632 11.8482 15.1608 11.6427 14.9558C11.2311 14.5453 11.2303 13.879 11.6408 13.4674L16.4108 8.68421H1.05264C0.471317 8.68421 0 8.21289 0 7.63157C0 7.05025 0.471317 6.57894 1.05264 6.57894H16.4108L11.6408 1.79603C11.2303 1.38445 11.2311 0.717865 11.6427 0.307337C12.0543 -0.10319 12.7208 -0.102401 13.1314 0.309443L19.6927 6.88841C20.1024 7.2992 20.1024 7.96394 19.6927 8.375Z" fill="#004C91"/>
</svg>
