<svg width="8" height="8" viewBox="0 0 8 8" fill="none" xmlns="http://www.w3.org/2000/svg">
<path fill-rule="evenodd" clip-rule="evenodd" d="M7.1642 6.34845C7.38945 6.5737 7.38945 6.93909 7.1642 7.16435C7.0515 7.27704 6.90394 7.33332 6.75624 7.33332C6.60855 7.33332 6.46099 7.27704 6.34829 7.16435L3.99982 4.81588L1.65135 7.16435C1.53866 7.27704 1.39109 7.33332 1.2434 7.33332C1.0957 7.33332 0.94814 7.27704 0.835447 7.16435C0.61019 6.93909 0.61019 6.5737 0.835447 6.34845L3.18392 3.99997L0.835447 1.6515C0.61019 1.42624 0.61019 1.06086 0.835447 0.8356C1.06083 0.610342 1.42596 0.610342 1.65135 0.8356L3.99982 3.18407L6.34829 0.8356C6.57368 0.610342 6.93881 0.610342 7.1642 0.8356C7.38945 1.06086 7.38945 1.42624 7.1642 1.6515L4.81572 3.99997L7.1642 6.34845Z"/>
</svg>
