<svg width="30" height="30" viewBox="0 0 30 30" fill="none" xmlns="http://www.w3.org/2000/svg">
<path fill-rule="evenodd" clip-rule="evenodd" d="M15 30C23.2843 30 30 23.2843 30 15C30 6.71573 23.2843 0 15 0C6.71573 0 0 6.71573 0 15C0 23.2843 6.71573 30 15 30Z" fill="#FCEFED"/>
<path fill-rule="evenodd" clip-rule="evenodd" d="M19.7465 18.5227C20.0844 18.8606 20.0844 19.4087 19.7465 19.7465C19.5775 19.9156 19.3562 20 19.1346 20C18.9131 20 18.6917 19.9156 18.5227 19.7465L15 16.2238L11.4773 19.7465C11.3082 19.9156 11.0869 20 10.8653 20C10.6438 20 10.4225 19.9156 10.2534 19.7465C9.91553 19.4087 9.91553 18.8606 10.2534 18.5227L13.7761 15L10.2534 11.4773C9.91553 11.1394 9.91553 10.5913 10.2534 10.2534C10.5915 9.91553 11.1392 9.91553 11.4773 10.2534L15 13.7761L18.5227 10.2534C18.8608 9.91553 19.4085 9.91553 19.7465 10.2534C20.0844 10.5913 20.0844 11.1394 19.7465 11.4773L16.2238 15L19.7465 18.5227Z" fill="#E35F4B"/>
</svg>
