<svg width="20" height="21" viewBox="0 0 20 21" fill="none" xmlns="http://www.w3.org/2000/svg">
<path fill-rule="evenodd" clip-rule="evenodd" d="M3.1457 12.9239C3.602 16.4776 6.80266 19.2396 10.6707 19.2396C14.8507 19.2396 18.2514 15.8387 18.2514 11.6587C18.2514 7.8609 15.4392 4.60764 11.9359 4.13677V12.0496C11.9359 12.5324 11.5444 12.9239 11.0616 12.9239H3.1457ZM10.6706 20.9883C5.5265 20.9883 1.34129 16.9783 1.34129 12.0496C1.34129 11.5667 1.73281 11.1752 2.21564 11.1752H10.1872V3.2037C10.1872 2.72088 10.5787 2.32936 11.0615 2.32936C15.9067 2.32936 20 6.60175 20 11.6587C20 16.8031 15.8148 20.9883 10.6706 20.9883ZM1.58044 7.53807H6.55V2.56872C3.97087 2.91089 1.92261 4.95894 1.58044 7.53807ZM7.315 9.06806H0.765C0.342391 9.06806 0 8.72567 0 8.30306C0 4.26959 3.28152 0.988281 7.315 0.988281C7.73761 0.988281 8.08 1.33067 8.08 1.75328V8.30306C8.08 8.72567 7.73761 9.06806 7.315 9.06806Z" fill="#004C91"/>
</svg>
