<svg width="20" height="20" viewBox="0 0 20 20" fill="none" xmlns="http://www.w3.org/2000/svg">
<path fill-rule="evenodd" clip-rule="evenodd" d="M14.4407 18.9632V16.6476C14.4407 16.2835 14.1454 15.9882 13.7813 15.9882C13.4172 15.9882 13.122 16.2835 13.122 16.6476V18.6813H1.3187V6.88303H3.34652C3.71065 6.88303 4.00587 6.58781 4.00587 6.22368C4.00587 5.85955 3.71065 5.56434 3.34652 5.56434H1.03674C0.465 5.56434 0 6.02934 0 6.60108V18.9632C0 19.535 0.465 20 1.03674 20H13.4037C13.9754 20 14.4407 19.535 14.4407 18.9632ZM6.87803 13.1171H18.2417V1.75824H6.87803V13.1171ZM19.1209 14.8752H5.99892C5.51348 14.8752 5.11979 14.4817 5.11979 13.9963V0.87913C5.11979 0.393696 5.51348 0 5.99892 0H19.1209C19.6063 0 20 0.393696 20 0.87913V13.9963C20 14.4817 19.6063 14.8752 19.1209 14.8752Z"/>
</svg>
