<svg width="20" height="19" viewBox="0 0 20 19" fill="none" xmlns="http://www.w3.org/2000/svg">
<path fill-rule="evenodd" clip-rule="evenodd" d="M1.5 18.269H3.56897V16.2H1.5V18.269ZM1.5 11.069H3.56897V9H1.5V11.069ZM5.05747 0.804598C5.05747 0.36023 4.69724 0 4.25287 0H0.804598C0.36023 0 0 0.36023 0 0.804598V4.25287C0 4.69724 0.36023 5.05747 0.804598 5.05747H4.25287C4.69724 5.05747 5.05747 4.69724 5.05747 4.25287V0.804598ZM1.5 3.56897H3.56897V1.5H1.5V3.56897ZM18.8506 16.092H8.78506C8.15034 16.092 7.63563 16.6067 7.63563 17.2414C7.63563 17.8761 8.15034 18.3908 8.78506 18.3908H18.8506C19.4853 18.3908 20 17.8761 20 17.2414C20 16.6067 19.4853 16.092 18.8506 16.092ZM18.8506 8.73563H8.78506C8.15034 8.73563 7.63563 9.25034 7.63563 9.88506C7.63563 10.5198 8.15034 11.0345 8.78506 11.0345H18.8506C19.4853 11.0345 20 10.5198 20 9.88506C20 9.25034 19.4853 8.73563 18.8506 8.73563ZM7.63563 2.52874C7.63563 1.89402 8.15034 1.37931 8.78506 1.37931H18.8506C19.4853 1.37931 20 1.89402 20 2.52874C20 3.16345 19.4853 3.67816 18.8506 3.67816H8.78506C8.15034 3.67816 7.63563 3.16345 7.63563 2.52874Z" />
</svg>
