<svg width="20" height="20" viewBox="0 0 20 20" fill="none" xmlns="http://www.w3.org/2000/svg">
<path fill-rule="evenodd" clip-rule="evenodd" d="M7.42708 2H1.06345C0.476238 2 0 2.4764 0 3.06381V18.9365C0 19.5239 0.476238 20 1.06345 20H16.9366C17.5238 20 18 19.5239 18 18.9365V13.4706L15.8739 13.9708V17.8726H2.12769V4.12754H6.79916L7.42708 2Z" fill="#E35F4B"/>
<path fill-rule="evenodd" clip-rule="evenodd" d="M19.5943 2.36897L16.969 4.99988L19.5943 7.63119C20.1383 8.17643 20.1347 9.05605 19.5868 9.59692C19.314 9.86577 18.9582 10 18.6024 10C18.2425 10 17.8831 9.86299 17.61 9.58938L15.0002 6.97356L12.39 9.58938C12.1169 9.86299 11.7571 10 11.398 10C11.0418 10 10.686 9.86577 10.4132 9.59692C9.86533 9.05605 9.86174 8.17643 10.4057 7.63119L13.031 4.99988L10.4057 2.36897C9.86174 1.82373 9.86533 0.944111 10.4132 0.403236C10.9616 -0.137243 11.8465 -0.133669 12.39 0.410781L15.0002 3.0266L17.61 0.410781C18.1539 -0.133669 19.0388 -0.13764 19.5868 0.403236C20.1347 0.944111 20.1383 1.82373 19.5943 2.36897Z" fill="#E35F4B"/>
</svg>
