<svg width="19" height="20" viewBox="0 0 19 20" fill="none" xmlns="http://www.w3.org/2000/svg">
<path fill-rule="evenodd" clip-rule="evenodd" d="M11.2462 16.9231C11.6626 16.9231 12.0051 16.5699 12.0149 16.1514L12.2385 6.66197C12.2484 6.23714 11.9123 5.87956 11.4875 5.86967C11.056 5.86329 10.7103 6.19318 10.7004 6.6178L10.4769 16.1165C10.4668 16.5411 10.8029 16.9231 11.2277 16.9231H11.2462ZM7.62132 16.9231H7.63978C8.06462 16.9231 8.40066 16.5145 8.39077 16.0897L8.16725 6.58769C8.15714 6.16286 7.80879 5.81583 7.38 5.82528C6.95538 5.83517 6.61912 6.18176 6.62923 6.6066L6.85275 16.1288C6.86264 16.5473 7.20483 16.9231 7.62132 16.9231ZM7.25275 2.63736H11.6484V1.53846H7.25275V2.63736ZM18.9011 3.51648C18.9011 4.00198 18.5075 4.3956 18.022 4.3956H0.879121C0.393626 4.3956 0 4.00198 0 3.51648C0 3.03099 0.393626 2.63736 0.879121 2.63736H5.71429V0.659341C5.71429 0.234506 5.99758 0 6.42242 0H12.4785C12.9033 0 13.1868 0.234506 13.1868 0.659341V2.63736H18.022C18.5075 2.63736 18.9011 3.03099 18.9011 3.51648ZM16.5708 6.4589L15.8998 19.1672C15.8752 19.6341 15.4895 20 15.022 20H3.87912C3.41165 20 3.02593 19.6341 3.00132 19.1672L2.33055 6.4589C2.30483 5.97406 2.67714 5.56022 3.16198 5.53472C3.64923 5.51121 4.06088 5.88154 4.08637 6.36615L4.71319 18.2418H14.1879L14.8147 6.36615C14.8404 5.88132 15.2571 5.51274 15.7391 5.53472C16.224 5.56022 16.5963 5.97406 16.5708 6.4589Z" />
</svg>
