<svg width="15" height="20" viewBox="0 0 15 20" fill="none" xmlns="http://www.w3.org/2000/svg">
<path d="M11.4579 9.34676V18.3704C11.4579 19.2589 10.768 19.9818 9.91995 19.9818H4.84463C4.50489 19.9818 4.22944 19.6932 4.22944 19.3372C4.22944 18.9813 4.50489 18.6927 4.84463 18.6927H9.91995C10.0895 18.6927 10.2275 18.5481 10.2275 18.3704V9.34676C10.2275 9.16907 10.0895 9.02449 9.91995 9.02449H4.07564C3.90604 9.02449 3.76804 9.16907 3.76804 9.34676V10.9178C3.76804 11.2738 3.49259 11.5624 3.15285 11.5624C2.81311 11.5624 2.53766 11.2738 2.53766 10.9178V9.34676C2.53766 8.45825 3.2276 7.73539 4.07564 7.73539H9.91995C10.768 7.73539 11.4579 8.45825 11.4579 9.34676ZM8.68957 13.214H5.30602C4.96628 13.214 4.69083 12.9255 4.69083 12.5695V10.6359C4.69083 10.2799 4.96628 9.99131 5.30602 9.99131H8.68957C9.02931 9.99131 9.30476 10.2799 9.30476 10.6359V12.5695C9.30476 12.9255 9.02934 13.214 8.68957 13.214ZM8.07438 11.2804H5.92121V11.925H8.07438V11.2804ZM7.76678 14.8254V17.0813C7.76678 17.4373 8.04223 17.7259 8.38197 17.7259C8.72171 17.7259 8.99716 17.4373 8.99716 17.0813V14.8254C8.99716 14.4694 8.72171 14.1809 8.38197 14.1809C8.04223 14.1809 7.76678 14.4694 7.76678 14.8254ZM5.75053 14.1933C5.38496 14.1185 5.05225 14.3929 5.01846 14.7621C4.98189 15.094 5.21928 15.4308 5.56982 15.4667C5.94155 15.5033 6.24576 15.1971 6.24576 14.8254C6.24572 14.5516 6.0737 14.2666 5.75053 14.1933ZM5.51022 16.4492C4.86812 16.5947 4.85901 17.5108 5.45178 17.6976C5.87372 17.8306 6.28429 17.4735 6.24268 17.018C6.20847 16.6444 5.87219 16.3751 5.51022 16.4492ZM14.9953 19.3372C14.9953 19.6932 14.7198 19.9818 14.3801 19.9818H12.6883C12.3486 19.9818 12.0731 19.6932 12.0731 19.3372C12.0731 18.9813 12.3486 18.6927 12.6883 18.6927H13.7649V5.47948H10.3813C10.0416 5.47948 9.76615 5.19092 9.76615 4.83493V1.28992H1.46108V10.9715C1.46108 11.3275 1.18563 11.6161 0.845887 11.6161C0.506148 11.6161 0.230696 11.3275 0.230696 10.9715V0.645374C0.230696 0.289382 0.506148 0.000826626 0.845887 0.000826626C11.07 0.000826626 10.4121 -0.00493402 10.5044 0.0139593C10.6255 0.0398217 10.7353 0.104679 10.8164 0.189598C15.1024 4.6802 14.8609 4.40989 14.923 4.53179C15.0276 4.73773 14.9953 3.63531 14.9953 19.3372ZM12.8949 4.19038C12.6195 3.90187 11.2719 2.48995 10.9965 2.20143V4.19038H12.8949ZM3.15285 4.19038H6.22881C6.56854 4.19038 6.844 3.90183 6.844 3.54584C6.844 3.18985 6.56854 2.90129 6.22881 2.90129H3.15285C2.81311 2.90129 2.53766 3.18985 2.53766 3.54584C2.53766 3.90183 2.81311 4.19038 3.15285 4.19038ZM3.15285 6.76857H7.76678C8.10652 6.76857 8.38197 6.48002 8.38197 6.12403C8.38197 5.76803 8.10652 5.47948 7.76678 5.47948H3.15285C2.81311 5.47948 2.53766 5.76803 2.53766 6.12403C2.53766 6.48002 2.81311 6.76857 3.15285 6.76857ZM1.80409 14.1003H1.8871C2.20342 14.1003 2.46076 14.3699 2.46076 14.7014C2.46076 15.0574 2.73621 15.3459 3.07595 15.3459C3.41569 15.3459 3.69114 15.0574 3.69114 14.7014C3.69114 13.8693 3.17504 13.1615 2.46076 12.9097V12.7124C2.46076 12.3564 2.18531 12.0678 1.84557 12.0678C1.50583 12.0678 1.23038 12.3564 1.23038 12.7124V12.9097C0.516107 13.1615 0 13.8692 0 14.7014C0 15.5074 0.488654 16.2255 1.21596 16.4883L2.07404 16.7983C2.30535 16.8818 2.46072 17.1102 2.46072 17.3665C2.46072 17.6979 2.20338 17.9675 1.88706 17.9675H1.80405C1.48772 17.9675 1.23038 17.6979 1.23038 17.3665C1.23038 17.0105 0.95493 16.7219 0.615191 16.7219C0.275452 16.7219 0 17.0105 0 17.3665C0 18.1986 0.516107 18.9063 1.23038 19.1581V19.3555C1.23038 19.7114 1.50583 20 1.84557 20C2.18531 20 2.46076 19.7114 2.46076 19.3555V19.1581C3.17504 18.9063 3.69114 18.1986 3.69114 17.3665C3.69114 16.5605 3.20249 15.8423 2.47518 15.5796L1.61711 15.2696C1.38579 15.186 1.23042 14.9577 1.23042 14.7014C1.23038 14.3699 1.48776 14.1003 1.80409 14.1003Z" />
</svg>
