<svg width="20" height="20" viewBox="0 0 20 20" fill="none" xmlns="http://www.w3.org/2000/svg">
<path fill-rule="evenodd" clip-rule="evenodd" d="M8.76178 14.2316C8.97067 14.4449 9.25689 14.5651 9.55556 14.5651C9.85445 14.5651 10.1404 14.4449 10.3496 14.2316L14.7822 9.70578C15.2116 9.26756 15.2042 8.564 14.7658 8.13444C14.3273 7.70533 13.6238 7.71244 13.1944 8.15089L10.6667 10.7318V1.11111C10.6667 0.497556 10.1691 0 9.55556 0C8.942 0 8.44445 0.497556 8.44445 1.11111V10.7316L5.91711 8.15089C5.48778 7.71244 4.78467 7.70533 4.34578 8.13444C3.90756 8.564 3.90022 9.26733 4.32956 9.70578L8.76178 14.2316ZM19.1111 12.838V18.8889C19.1111 19.5024 18.6136 20 18 20H1.11111C0.497556 20 0 19.5024 0 18.8889V12.838C0 12.2244 0.497556 11.7269 1.11111 11.7269C1.72467 11.7269 2.22222 12.2244 2.22222 12.838V17.7778H16.8889V12.838C16.8889 12.2244 17.3864 11.7269 18 11.7269C18.6136 11.7269 19.1111 12.2244 19.1111 12.838Z" />
</svg>
