<svg width="20" height="20" viewBox="0 0 20 20" fill="none" xmlns="http://www.w3.org/2000/svg">
<path fill-rule="evenodd" clip-rule="evenodd" d="M12.5626 4.68182C12.3942 4.51364 12.2962 4.27955 12.2962 4.03864C12.2962 3.8 12.3942 3.56591 12.5626 3.39546C12.7312 3.22728 12.9656 3.12955 13.2069 3.12955C13.4458 3.12955 13.6826 3.22728 13.8512 3.39546C14.0196 3.56591 14.1176 3.8 14.1176 4.03864C14.1176 4.27955 14.0196 4.51364 13.8512 4.68182C13.6803 4.85 13.4458 4.94773 13.2069 4.94773C12.9678 4.94773 12.7333 4.85 12.5626 4.68182ZM14.4419 6.17886C14.4365 6.18114 14.4308 6.18205 14.4253 6.18455C14.4162 6.18886 13.4681 6.6125 11.8919 6.59296C11.3194 6.58659 10.8999 6.47795 10.4144 6.3525C9.85897 6.20886 9.22965 6.04591 8.33374 6.03568C7.32169 6.02659 6.39715 6.28841 5.7851 6.51659L2.60692 1.81818H17.3917L14.4419 6.17886ZM11.1094 11.0377C11.0078 11.1879 10.9083 11.3652 10.9083 11.5466V18.1818H9.0901V11.5466C9.0901 11.3652 8.99056 11.1879 8.88897 11.0377L6.72988 7.87954C7.17692 7.74045 7.73351 7.61704 8.32692 7.62659C9.02897 7.63454 9.5076 7.75977 10.0206 7.89249C10.5576 8.03136 11.1101 8.17522 11.8765 8.18386C12.3396 8.18977 12.7349 8.16249 13.1085 8.11818L11.1094 11.0377ZM19.9096 0.4825C19.7517 0.185682 19.4424 0 19.1056 0H0.893058C0.556239 0 0.246694 0.185682 0.0887394 0.4825C-0.0692151 0.779545 -0.00353328 1.13932 0.185103 1.41795L7.27192 11.8248V18.7089C7.27192 19.4209 7.75851 20 8.47169 20H11.5267C12.2399 20 12.7265 19.4209 12.7265 18.7089V11.8248L19.8135 1.41795C20.0019 1.13932 20.0678 0.779545 19.9096 0.4825Z" />
</svg>
