<svg width="17" height="18" viewBox="0 0 17 18" fill="none" xmlns="http://www.w3.org/2000/svg">
<path d="M3.55324 4.20256H2.30935C1.37557 4.20256 0.614258 4.97596 0.614258 5.92666V7.36729C0.614258 8.09009 1.05198 8.70987 1.67513 8.9661V16.0111C1.67513 16.7598 2.27589 17.375 3.0166 17.375H13.9789C14.7244 17.375 15.3251 16.7598 15.3251 16.0063V8.9613C15.9483 8.70507 16.386 8.08529 16.386 7.36249V5.92186C16.386 4.97645 15.6299 4.19776 14.6909 4.19776H13.447L13.5636 4.07899C14.2243 3.40609 14.2243 2.31495 13.5636 1.64205L13.0638 1.13303C12.7437 0.806968 12.3157 0.625 11.8619 0.625C11.4089 0.625 10.9802 0.806501 10.6687 1.13373L8.54518 3.2965C8.5309 3.30968 8.51701 3.32325 8.5035 3.33719C8.49153 3.32435 8.47927 3.31155 8.46673 3.29877L6.34027 1.13303C6.02012 0.806968 5.59209 0.625 5.13834 0.625C4.68459 0.625 4.25656 0.806968 3.93641 1.13303L3.936 1.13345L3.43662 1.64685C3.43655 1.64693 3.43648 1.647 3.43641 1.64707C2.77593 2.31998 2.776 3.41097 3.43662 4.08379L3.55324 4.20256ZM10.2682 4.19776H10.1432V4.20256H9.01876C9.05723 4.1108 9.11182 4.02704 9.18341 3.95414L11.3087 1.7896C11.3088 1.78942 11.309 1.78923 11.3092 1.78905C11.4612 1.63873 11.656 1.5569 11.8619 1.5569C12.0683 1.5569 12.2626 1.63908 12.4092 1.78839L12.909 2.29741C13.2149 2.60895 13.2149 3.1121 12.909 3.42363L12.1489 4.19776H10.2682ZM7.97678 4.19776H6.73201H4.8466L4.08651 3.42363C3.78063 3.1121 3.78063 2.60895 4.08651 2.29741L4.08692 2.29699L4.5863 1.78359C4.58636 1.78352 4.58643 1.78345 4.5865 1.78339C4.73307 1.63421 4.92732 1.5521 5.13363 1.5521C5.34509 1.5521 5.53932 1.63453 5.68567 1.78359L7.81213 3.94933C7.88372 4.02224 7.93831 4.106 7.97678 4.19776ZM13.9789 16.4431H10.1952V9.09139H14.4056V16.0063C14.4056 16.2508 14.2102 16.4431 13.9789 16.4431ZM9.27569 9.09139V16.4431H7.71985V9.09139H9.27569ZM2.59466 16.0111V9.09139H6.80504V16.4479H3.02131C2.78671 16.4479 2.59466 16.2522 2.59466 16.0111ZM14.6909 8.15949H10.7327V5.12485H12.3098H12.31H12.3101H12.3103H12.3104H12.3105H12.3107H12.3108H12.3109H12.3111H12.3112H12.3114H12.3115H12.3116H12.3118H12.3119H12.312H12.3122H12.3123H12.3124H12.3126H12.3127H12.3129H12.313H12.3131H12.3133H12.3134H12.3135H12.3137H12.3138H12.3139H12.3141H12.3142H12.3143H12.3145H12.3146H12.3147H12.3149H12.315H12.3151H12.3153H12.3154H12.3155H12.3157H12.3158H12.316H12.3161H12.3162H12.3164H12.3165H12.3166H12.3168H12.3169H12.317H12.3172H12.3173H12.3174H12.3175H12.3177H12.3178H12.3179H12.3181H12.3182H12.3183H12.3185H12.3186H12.3187H12.3189H12.319H12.3191H12.3193H12.3194H12.3195H12.3197H12.3198H12.3199H12.3201H12.3202H12.3203H12.3204H12.3206H12.3207H12.3208H12.321H12.3211H12.3212H12.3214H12.3215H12.3216H12.3218H12.3219H12.322H12.3221H12.3223H12.3224H12.3225H12.3227H12.3228H12.3229H12.3231H12.3232H12.3233H12.3234H12.3236H12.3237H12.3238H12.324H12.3241H12.3242H12.3243H12.3245H12.3246H12.3247H12.3249H12.325H12.3251H12.3252H12.3254H12.3255H12.3256H12.3258H12.3259H12.326H12.3261H12.3263H12.3264H12.3265H12.3267H12.3268H12.3269H12.327H12.3272H12.3273H12.3274H12.3275H12.3277H12.3278H12.3279H12.3281H12.3282H12.3283H12.3284H12.3286H12.3287H12.3288H12.3289H12.3291H12.3292H12.3293H12.3295H12.3296H12.3297H12.3298H12.33H12.3301H12.3302H12.3303H12.3305H12.3306H12.3307H12.3308H12.331H12.3311H12.3312H12.3314H12.3315H12.3316H12.3317H12.3319H12.332H12.3321H12.3322H12.3324H12.3325H12.3326H12.3327H12.3329H12.333H12.3331H12.3332H12.3334H12.3335H12.3336H12.3337H12.3339H12.334H12.3341H12.3342H12.3344H12.3345H12.3346H12.3347H12.3349H12.335H12.3351H12.3352H12.3354H12.3355H12.3356H12.3357H12.3359H12.336H12.3361H12.3362H12.3364H12.3365H12.3366H12.3367H12.3369H12.337H12.3371H12.3372H12.3374H12.3375H12.3376H12.3377H12.3379H12.338H12.3381H12.3382H12.3384H12.3385H12.3386H12.3387H12.3389H12.339H12.3391H12.3392H12.3394H12.3395H12.3396H12.3397H12.3399H12.34H12.3401H12.3402H12.3404H12.3405H12.3406H12.3407H12.3409H12.341H12.3411H12.3412H12.3414H12.3415H12.3416H12.3417H12.3418H12.342H12.3421H12.3422H12.3423H12.3425H12.3426H12.3427H12.3428H12.343H12.3431H12.3432H12.3433H12.3435H12.3436H12.3437H12.3438H12.344H12.3441H12.3442H12.3443H12.3445H12.3446H12.3447H12.3448H12.345H12.3451H12.3452H12.3453H12.3455H12.3456H12.3457H12.3458H12.346H12.3461H12.3462H12.3463H12.3464H12.3466H12.3467H12.3468H12.3469H12.3471H12.3472H12.3473H12.3474H12.3476H12.3477H12.3478H12.3479H12.3481H12.3482H12.3483H12.3484H12.3486H12.3487H12.3488H12.3489H12.3491H12.3492H12.3493H12.3494H12.3496H12.3497H12.3498H12.3499H12.3501H12.3502H12.3503H12.3504H12.3506H12.3507H12.3508H12.3509H12.3511H12.3512H12.3513H12.3514H12.3516H12.3517H12.3518H12.3519H12.3521H12.3522H12.3523H12.3524H12.3526H12.3527H12.3528H12.353H12.3531H12.3532H12.3533H12.3535H12.3536H12.3537H12.3538H12.354H12.3541H12.3542H12.3543H12.3545H12.3546H12.3547H12.3548H12.355H12.3551H12.3552H12.3553H12.3555H12.3556H12.3557H12.3559H12.356H12.3561H12.3562H12.3564H12.3565H12.3566H12.3567H12.3569H12.357H12.3571H12.3572H12.3574H12.3575H12.3576H12.3578H12.3579H12.358H12.3581H12.3583H12.3584H12.3585H12.3586H12.3588H12.3589H12.359H12.3592H12.3593H12.3594H12.3595H12.3597H12.3598H12.3599H12.3601H12.3602H12.3603H12.3604H12.3606H12.3607H12.3608H12.361H12.3611H12.3612H12.3613H12.3615H12.3616H12.3617H12.3619H12.362H12.3621H12.3622H12.3624H12.3625H12.3626H12.3628H12.3629H12.363H12.3632H12.3633H12.3634H12.3635H12.3637H12.3638H12.3639H12.3641H12.3642H12.3643H12.3645H12.3646H12.3647H12.3648H12.365H12.3651H12.3652H12.3654H12.3655H12.3656H12.3658H12.3659H12.366H12.3662H12.3663H12.3664H12.3666H12.3667H12.3668H12.3669H12.3671H12.3672H12.3673H12.3675H12.3676H12.3677H12.3679H12.368H12.3681H12.3683H12.3684H12.3685H12.3687H12.3688H12.3689H12.3691H12.3692H12.3693H12.3695H12.3696H12.3697H12.3699H12.37H12.3701H12.3703H12.3704H12.3705H12.3707H12.3708H12.3709H12.3711H12.3712H12.3713H12.3715H12.3716H12.3718H12.3719H12.372H12.3722H12.3723H12.3724H12.3726H12.3727H12.3728H12.373H12.3731H12.3732H12.3734H12.3735H12.3737H12.3738H12.3739H12.3741H12.3742H12.3743H12.3745H12.3746H12.3747H12.3749H12.375H12.3752H12.3753H12.3754H12.3756H12.3757H12.3758H14.6909C15.1195 5.12485 15.4712 5.4797 15.4712 5.92186V7.36249C15.4712 7.80464 15.1195 8.15949 14.6909 8.15949ZM9.73545 8.15949H7.19177V5.12966H9.80848V8.15949H9.73545ZM1.52907 5.92666C1.52907 5.48451 1.88074 5.12966 2.30935 5.12966H6.27224V8.16429H2.30935C1.88074 8.16429 1.52907 7.80944 1.52907 7.36729V5.92666Z"  stroke="#004C91" stroke-width="0.25"/>
</svg>
