<svg width="16" height="19" viewBox="0 0 15 19" fill="none" xmlns="http://www.w3.org/2000/svg">
<path d="M14.5 4.8L10.1 0.2C10 0.1 9.8 0 9.6 0H2.6C1.2 0 0 1.2 0 2.6V15.8C0 17.2 1.2 18.4 2.6 18.4H12.1C13.6 18.4 14.7 17.2 14.7 15.8V5.3C14.7 5.2 14.7 5 14.5 4.8ZM11.1 4.6C10.7 4.6 10.4 4.3 10.4 3.9V2.5L12.4 4.6H11.1ZM11.1 6H13.3V15.8C13.3 16.4 12.8 17 12.1 17H2.6C1.9 17 1.4 16.5 1.4 15.8V2.6C1.4 2 2 1.4 2.6 1.4H8.9V3.8C8.9 5.1 9.9 6 11.1 6Z" />
<path d="M10.9004 15.1016H3.80039C3.60039 15.1016 3.40039 15.3016 3.40039 15.5016C3.40039 15.7016 3.60039 15.9016 3.80039 15.9016H10.9004C11.1004 15.9016 11.3004 15.7016 11.3004 15.5016C11.4004 15.3016 11.2004 15.1016 10.9004 15.1016Z" />
<path d="M2.60039 10.0984C2.50039 10.2984 2.50039 10.4984 2.60039 10.5984C2.70039 10.6984 3.40039 11.6984 4.60039 12.4984L3.80039 13.2984C3.60039 13.4984 3.60039 13.6984 3.80039 13.8984C3.90039 13.9984 4.00039 14.0984 4.10039 14.0984C4.20039 14.0984 4.30039 14.0984 4.40039 13.9984L5.40039 12.9984C6.00039 13.2984 6.70039 13.4984 7.40039 13.4984C10.0004 13.4984 12.0004 10.7984 12.1004 10.5984C12.2004 10.3984 12.2004 10.1984 12.1004 10.0984C12.0004 9.99844 11.3004 8.99844 10.1004 8.19844L10.9004 7.39844C11.1004 7.19844 11.1004 6.99844 10.9004 6.79844C10.7004 6.59844 10.5004 6.59844 10.3004 6.79844L9.40039 7.79844C8.80039 7.49844 8.10039 7.29844 7.40039 7.29844C4.70039 7.29844 2.70039 9.99844 2.60039 10.0984ZM9.10039 9.29844L9.50039 8.89844C10.3004 9.39844 10.9004 10.0984 11.2004 10.3984C10.7004 10.9984 9.10039 12.6984 7.40039 12.6984C6.90039 12.6984 6.50039 12.5984 6.10039 12.3984L6.30039 12.1984C6.60039 12.3984 7.00039 12.4984 7.40039 12.4984C8.50039 12.4984 9.50039 11.5984 9.50039 10.3984C9.40039 9.99844 9.30039 9.59844 9.10039 9.29844ZM6.30039 10.8984C6.20039 10.7984 6.20039 10.5984 6.20039 10.3984C6.20039 9.69844 6.70039 9.19844 7.40039 9.19844C7.60039 9.19844 7.70039 9.19844 7.90039 9.29844L6.30039 10.8984ZM8.50039 9.89844C8.60039 9.99844 8.60039 10.1984 8.60039 10.3984C8.60039 11.0984 8.10039 11.5984 7.40039 11.5984C7.20039 11.5984 7.10039 11.5984 6.90039 11.4984L8.50039 9.89844ZM8.50039 8.59844C8.20039 8.39844 7.80039 8.29844 7.40039 8.29844C6.30039 8.29844 5.30039 9.19844 5.30039 10.3984C5.30039 10.7984 5.40039 11.1984 5.60039 11.4984L5.20039 11.8984C4.40039 11.3984 3.80039 10.6984 3.50039 10.3984C4.00039 9.79844 5.60039 8.09844 7.30039 8.09844C7.80039 8.09844 8.20039 8.19844 8.60039 8.39844L8.50039 8.59844Z"/>
</svg>
