<svg width="17" height="14" viewBox="0 0 17 14" fill="none" xmlns="http://www.w3.org/2000/svg">
<path d="M16.0561 6.59602C15.0748 5.3104 13.8963 4.18816 12.5642 3.27095L14.8425 0.992664C15.0718 0.771145 15.0782 0.405644 14.8567 0.176275C14.6351 -0.053093 14.2696 -0.0594531 14.0403 0.162067C14.0355 0.166701 14.0307 0.171438 14.0261 0.176275L11.537 2.66299C10.4776 2.0799 9.29232 1.76287 8.08323 1.73919C3.69522 1.73919 0.254699 6.3974 0.110345 6.59598C-0.0367818 6.79839 -0.0367818 7.07255 0.110345 7.27495C1.09162 8.56057 2.27016 9.68281 3.60226 10.6L1.32397 12.8783C1.0946 13.0998 1.08824 13.4653 1.30976 13.6947C1.53128 13.9241 1.89678 13.9304 2.12615 13.7089C2.13095 13.7043 2.13569 13.6995 2.14036 13.6947L4.62937 11.208C5.68883 11.7911 6.87411 12.1081 8.0832 12.1318C12.4712 12.1318 15.9117 7.47357 16.0561 7.27495C16.2032 7.07258 16.2032 6.79842 16.0561 6.59602ZM4.44175 9.76228C3.26558 8.97891 2.2113 8.02642 1.31301 6.9355C2.16289 5.90605 4.91923 2.89392 8.08323 2.89392C8.98342 2.91212 9.86845 3.129 10.675 3.52901L9.6727 4.53133C8.34656 3.6509 6.55776 4.01221 5.67733 5.33835C5.03598 6.30437 5.03598 7.56068 5.67733 8.5267L4.44175 9.76228ZM9.64212 6.19357C9.75511 6.42463 9.81435 6.67829 9.81533 6.9355C9.81533 7.89212 9.03984 8.66761 8.08323 8.66761C7.82602 8.66662 7.57236 8.60739 7.3413 8.4944L9.64212 6.19357ZM6.52434 7.6774C6.41134 7.44634 6.35211 7.19268 6.35113 6.93547C6.35113 5.97885 7.12661 5.20337 8.08323 5.20337C8.34044 5.20435 8.5941 5.26358 8.82516 5.37658L6.52434 7.6774ZM8.08323 10.9771C7.18304 10.9589 6.29805 10.742 5.49144 10.342L6.49375 9.33964C7.8199 10.2201 9.6087 9.85876 10.4891 8.53262C11.1305 7.5666 11.1305 6.31029 10.4891 5.34427L11.7247 4.10869C12.9009 4.89206 13.9552 5.84458 14.8535 6.93547C14.0035 7.96495 11.2472 10.9771 8.08323 10.9771Z" />
</svg>
