<svg width="22" height="22" viewBox="0 0 22 22" fill="none" xmlns="http://www.w3.org/2000/svg">
<path d="M17.7344 3.39172L10.9961 1.21094L4.25781 3.39172V14.1048H17.7344V3.39172ZM14.2188 8.24539H7.77344V7.07352H14.2188V8.24539ZM7.77344 9.41727H14.2188V10.5891H7.77344V9.41727ZM7.77344 11.761H14.2188V12.9329H7.77344V11.761ZM16.5625 12.9329H15.3906V5.90164H6.60156V12.9329H5.42969V4.24423L10.9961 2.44263L16.5625 4.24423V12.9329Z"/>
<path d="M17.8594 3.39172V3.3008L17.7729 3.2728L11.0346 1.09201L10.9961 1.07955L10.9576 1.09201L4.21932 3.2728L4.13281 3.3008V3.39172V14.1048V14.2298H4.25781H17.7344H17.8594V14.1048V3.39172ZM16.4375 4.33516V12.8079H15.5156V5.90164V5.77664H15.3906H6.60156H6.47656V5.90164V12.8079H5.55469V4.33516L10.9961 2.57401L16.4375 4.33516ZM7.89844 8.12039V7.19852H14.0938V8.12039H7.89844ZM14.0938 9.54227V10.4641H7.89844V9.54227H14.0938ZM14.0938 11.886V12.8079H7.89844V11.886H14.0938Z" stroke="#22232B" stroke-opacity="0.5" stroke-width="0.25"/>
<path d="M0.996094 21.2031H6.85547V15.3438H0.996094V21.2031ZM2.16797 16.5156H3.33984V17.6875H4.51172V16.5156H5.68359V20.0312H2.16797V16.5156Z" fill="#22232B" fill-opacity="0.5"/>
<path d="M0.871094 21.2031V21.3281H0.996094H6.85547H6.98047V21.2031V15.3438V15.2188H6.85547H0.996094H0.871094V15.3438V21.2031ZM4.63672 17.6875V16.6406H5.55859V19.9062H2.29297V16.6406H3.21484V17.6875V17.8125H3.33984H4.51172H4.63672V17.6875Z" stroke="#22232B" stroke-opacity="0.5" stroke-width="0.25"/>
<path d="M8.06641 21.2031H13.9258V15.3438H8.06641V21.2031ZM9.23828 16.5156H10.4102V17.6875H11.582V16.5156H12.7539V20.0312H9.23828V16.5156Z" fill="#22232B" fill-opacity="0.5"/>
<path d="M7.94141 21.2031V21.3281H8.06641H13.9258H14.0508V21.2031V15.3438V15.2188H13.9258H8.06641H7.94141V15.3438V21.2031ZM11.707 17.6875V16.6406H12.6289V19.9062H9.36328V16.6406H10.2852V17.6875V17.8125H10.4102H11.582H11.707V17.6875Z" stroke="#22232B" stroke-opacity="0.5" stroke-width="0.25"/>
<path d="M15.1367 15.3438V21.2031H20.9961V15.3438H15.1367ZM19.8242 20.0312H16.3086V16.5156H17.4805V17.6875H18.6523V16.5156H19.8242V20.0312Z" fill="#22232B" fill-opacity="0.5"/>
<path d="M15.1367 15.2188H15.0117V15.3438V21.2031V21.3281H15.1367H20.9961H21.1211V21.2031V15.3438V15.2188H20.9961H15.1367ZM18.7773 17.6875V16.6406H19.6992V19.9062H16.4336V16.6406H17.3555V17.6875V17.8125H17.4805H18.6523H18.7773V17.6875Z" stroke="#22232B" stroke-opacity="0.5" stroke-width="0.25"/>
</svg>
