<svg width="21" height="20" viewBox="0 0 21 20" fill="none"  xmlns="http://www.w3.org/2000/svg">
<path d="M20.3535 5.01562H15.9004V1.53906C15.9004 1.21547 15.638 0.953125 15.3145 0.953125H1.52539C1.2018 0.953125 0.939453 1.21547 0.939453 1.53906V16.6953C0.939453 18.3107 2.25371 19.625 3.86914 19.625H18.0098C19.6252 19.625 20.9395 18.3107 20.9395 16.6953V5.60156C20.9395 5.27797 20.6771 5.01562 20.3535 5.01562ZM3.86914 18.4531C2.89988 18.4531 2.11133 17.6646 2.11133 16.6953V2.125H14.7285C14.7285 17.612 14.7211 16.7509 14.742 16.9718C14.7929 17.515 14.9955 18.0272 15.3158 18.4531H3.86914ZM19.7676 16.6953C19.7676 17.6646 18.979 18.4531 18.0098 18.4531C17.8783 18.4531 17.7873 18.4531 17.6582 18.4531C16.6889 18.4531 15.9004 17.6646 15.9004 16.6953V6.1875H19.7676V16.6953Z" fill="#22232B" fill-opacity="0.5"/>
<path d="M12.8145 3.76562H4.06445C3.74086 3.76562 3.47852 4.02797 3.47852 4.35156C3.47852 4.67516 3.74086 4.9375 4.06445 4.9375H12.8145C13.138 4.9375 13.4004 4.67516 13.4004 4.35156C13.4004 4.02797 13.138 3.76562 12.8145 3.76562Z" fill="#22232B" fill-opacity="0.5"/>
<path d="M12.8145 6.26562H4.06445C3.74086 6.26562 3.47852 6.52797 3.47852 6.85156C3.47852 7.17516 3.74086 7.4375 4.06445 7.4375H12.8145C13.138 7.4375 13.4004 7.17516 13.4004 6.85156C13.4004 6.52797 13.138 6.26562 12.8145 6.26562Z" fill="#22232B" fill-opacity="0.5"/>
<path d="M12.8145 15.6406H4.06445C3.74086 15.6406 3.47852 15.903 3.47852 16.2266C3.47852 16.5502 3.74086 16.8125 4.06445 16.8125H12.8145C13.138 16.8125 13.4004 16.5502 13.4004 16.2266C13.4004 15.903 13.138 15.6406 12.8145 15.6406Z" fill="#22232B" fill-opacity="0.5"/>
<path d="M12.8145 8.76562H8.43945C8.11586 8.76562 7.85352 9.02797 7.85352 9.35156V13.7266C7.85352 14.0502 8.11586 14.3125 8.43945 14.3125H12.8145C13.138 14.3125 13.4004 14.0502 13.4004 13.7266V9.35156C13.4004 9.02797 13.138 8.76562 12.8145 8.76562ZM12.2285 13.1406H9.02539V9.9375H12.2285V13.1406Z" fill="#22232B" fill-opacity="0.5"/>
<path d="M4.06445 10.875H5.93945C6.26305 10.875 6.52539 10.6127 6.52539 10.2891C6.52539 9.96547 6.26305 9.70312 5.93945 9.70312H4.06445C3.74086 9.70312 3.47852 9.96547 3.47852 10.2891C3.47852 10.6127 3.74086 10.875 4.06445 10.875Z" fill="#22232B" fill-opacity="0.5"/>
<path d="M4.06445 13.375H5.93945C6.26305 13.375 6.52539 13.1127 6.52539 12.7891C6.52539 12.4655 6.26305 12.2031 5.93945 12.2031H4.06445C3.74086 12.2031 3.47852 12.4655 3.47852 12.7891C3.47852 13.1127 3.74086 13.375 4.06445 13.375Z" fill="#22232B" fill-opacity="0.5"/>
</svg>
