<svg width="22" height="13" viewBox="0 0 22 13" fill="none" xmlns="http://www.w3.org/2000/svg">
<path fill-rule="evenodd" clip-rule="evenodd" d="M12.4203 5.03367C12.5997 5.21062 12.7001 5.45693 12.7001 5.7104C12.7001 5.96149 12.5997 6.20779 12.4203 6.38714C12.2434 6.5641 11.9971 6.66692 11.746 6.66692C11.4925 6.66692 11.2462 6.5641 11.0692 6.38714C10.8899 6.20779 10.7895 5.96149 10.7895 5.7104C10.7895 5.45693 10.8899 5.21062 11.0692 5.03367C11.2462 4.85432 11.4925 4.75389 11.746 4.75389C11.9971 4.75389 12.2434 4.85432 12.4203 5.03367ZM12.5144 8.48476C11.9771 8.89057 11.3142 9.06202 10.649 8.96828C9.98156 8.87383 9.39091 8.52374 8.98534 7.98235C8.14791 6.86347 8.37222 5.26919 9.48536 4.42794C10.0232 4.02214 10.6865 3.8502 11.352 3.94466C12.0192 4.03935 12.6098 4.3892 13.0147 4.93011C13.8521 6.04947 13.6278 7.64399 12.5144 8.48476ZM11.553 2.52423C10.5058 2.37573 9.46492 2.64547 8.62008 3.28299C8.62008 3.28299 8.62008 3.28323 8.61984 3.28323C6.8785 4.59939 6.52698 7.09279 7.83645 8.84226C8.47229 9.69141 9.39964 10.2407 10.4477 10.3889C10.635 10.4153 10.8222 10.4284 11.008 10.4284C11.8603 10.4284 12.686 10.1529 13.3787 9.62947C15.1206 8.31426 15.4726 5.82063 14.1629 4.07044C13.5275 3.22177 12.6006 2.67249 11.553 2.52423ZM10.9997 11C6.38136 11 3.23705 7.75784 2.16025 6.45459C3.23203 5.15062 6.3608 1.91305 10.9997 1.91305C15.617 1.91305 18.7606 5.15349 19.8376 6.4565C18.7594 7.76071 15.6158 11 10.9997 11ZM21.838 5.92395C21.6759 5.68195 17.7889 0 11 0C4.21112 0 0.32408 5.68195 0.16195 5.92395C-0.0539834 6.24605 -0.0539834 6.66692 0.16195 6.98903C0.32408 7.23103 4.21112 12.913 11 12.913C17.7889 12.913 21.6759 7.23103 21.838 6.98903C22.054 6.66692 22.054 6.24605 21.838 5.92395Z" />
</svg>
