<svg width="21" height="20" viewBox="0 0 21 20" fill="none" xmlns="http://www.w3.org/2000/svg">
<path fill-rule="evenodd" clip-rule="evenodd" d="M4.11717 7.41572C4.11717 7.04336 4.41896 6.74156 4.79132 6.74156H6.9066C7.27874 6.74156 7.58076 7.04336 7.58076 7.41572C7.58076 7.78808 7.27874 8.08988 6.9066 8.08988H4.79132C4.41896 8.08988 4.11717 7.78808 4.11717 7.41572ZM18.8763 13.7079H16.2091L15.9259 11.876C15.8677 11.4917 15.5372 11.236 15.1484 11.236H5.52572C5.13696 11.236 4.8064 11.4917 4.74819 11.876L4.46505 13.7079H1.79763V5.16854H18.8763V13.7079ZM5.34848 18.427L6.20151 12.809H14.4727L15.3258 18.427H5.34848ZM6.74156 3.37076H13.9326V1.34829H6.74156V3.37076ZM19.7753 3.37079H15.2809V0.674157C15.2809 0.301798 15.084 0 14.7117 0H5.9627C5.59056 0 5.39326 0.301798 5.39326 0.674157V3.37079H0.898876C0.402472 3.37079 0 3.75685 0 4.25326V14.5629C0 15.0593 0.402472 15.5056 0.898876 15.5056H4.19169L3.65595 19.0047C3.62135 19.2315 3.68742 19.507 3.83685 19.6809C3.98629 19.8548 4.20427 20 4.43348 20H16.2411C16.4703 20 16.6881 19.8438 16.8375 19.6699C16.987 19.496 17.053 19.2596 17.0187 19.0328L16.4827 15.5056H19.7753C20.2717 15.5056 20.6742 15.0593 20.6742 14.5629V4.25326C20.6742 3.75685 20.2717 3.37079 19.7753 3.37079Z" />
</svg>
