<svg width="20" height="20" viewBox="0 0 20 20" fill="none" xmlns="http://www.w3.org/2000/svg">
<path fill-rule="evenodd" clip-rule="evenodd" d="M10 20C4.47715 20 0 15.5228 0 10C0 4.47715 4.47715 0 10 0C15.5228 0 20 4.47715 20 10C20 15.5228 15.5228 20 10 20ZM10 1.66667C5.39763 1.66667 1.66667 5.39763 1.66667 10C1.66667 14.6024 5.39763 18.3333 10 18.3333C14.6024 18.3333 18.3333 14.6024 18.3333 10C18.3333 5.39763 14.6024 1.66667 10 1.66667ZM14.9833 10.0675V10.09C14.978 10.1636 14.964 10.2363 14.9417 10.3067C14.925 10.3358 14.9083 10.36 14.8917 10.39C14.863 10.4483 14.8266 10.5024 14.7833 10.5508C14.7552 10.5769 14.7245 10.6001 14.6917 10.62L12.5583 13.78C12.2649 14.1693 11.7342 14.2916 11.3 14.07C11.094 13.9902 10.9354 13.8211 10.8689 13.6104C10.8025 13.3997 10.8354 13.1702 10.9583 12.9867L12.4083 10.8342H5.83333C5.3731 10.8342 5 10.4611 5 10.0008C5 9.5406 5.3731 9.1675 5.83333 9.1675H12.4083L10.9583 7.01584C10.8357 6.8322 10.803 6.60284 10.8694 6.39224C10.9358 6.18164 11.0942 6.01254 11.3 5.9325C11.7344 5.71197 12.2643 5.83411 12.5583 6.2225L14.675 9.3575C14.6886 9.36817 14.7 9.3815 14.7083 9.39667C14.7802 9.45751 14.842 9.52921 14.8917 9.60917C14.9463 9.70442 14.9777 9.81119 14.9833 9.92084V9.93417C14.9898 9.94177 14.9928 9.95174 14.9917 9.96167C14.9917 9.975 15 9.98667 15 10C15 10.0133 14.9917 10.0258 14.9917 10.0383C14.9928 10.0488 14.9898 10.0593 14.9833 10.0675Z"/>
</svg>
