<svg width="20" height="20" viewBox="0 0 20 20" fill="none" xmlns="http://www.w3.org/2000/svg">
<path fill-rule="evenodd" clip-rule="evenodd" d="M18.3333 20H1.66667C0.746192 20 0 19.2538 0 18.3333V1.66667C0 0.746192 0.746192 0 1.66667 0H14.1667V0.005C14.4042 -0.0100728 14.6371 0.0755269 14.8083 0.240833L19.7333 5.16667C19.9075 5.34289 19.9958 5.58647 19.975 5.83333H20V18.3333C20 19.2538 19.2538 20 18.3333 20ZM5.83333 18.3333H14.1667V12.5H5.83333V18.3333ZM12.5 1.66667H7.5V6.66667H12.5V1.66667ZM18.3333 6.23083L14.1667 2.06417V6.66667C14.1667 7.58714 13.4205 8.33333 12.5 8.33333H7.5C6.57952 8.33333 5.83333 7.58714 5.83333 6.66667V1.66667H1.66667V18.3333H4.16667V12.5C4.16667 11.5795 4.91286 10.8333 5.83333 10.8333H14.1667C15.0871 10.8333 15.8333 11.5795 15.8333 12.5V18.3333H18.3333V6.23083Z" />
</svg>
