<svg width="20" height="15" viewBox="0 0 20 15" fill="none" xmlns="http://www.w3.org/2000/svg">
<path fill-rule="evenodd" clip-rule="evenodd" d="M2.97674 5.86515H11.4691C11.9493 5.86515 12.3387 5.47689 12.3387 4.99558C12.3387 4.51428 11.9493 4.12602 11.4691 4.12602H2.97674L5.52957 1.52471C5.87 1.18536 5.87152 0.605581 5.53283 0.264059C5.19413 -0.0772449 4.64348 -0.0926797 4.30304 0.246885L0.256304 4.27449C0.0921739 4.43819 0 4.6571 0 4.88906C0 5.12102 0.0921739 5.34167 0.256304 5.50515L4.30304 9.53906C4.47261 9.70819 4.69456 9.79232 4.9163 9.79232C5.13956 9.79232 5.36283 9.70623 5.53283 9.53515C5.87152 9.19384 5.87 8.69602 5.52957 8.35645L2.97674 5.86515ZM20 9.90449C20 10.1364 19.9077 10.3571 19.7435 10.5208L15.6968 14.5519C15.5272 14.721 15.3053 14.7986 15.0835 14.7986C14.8603 14.7986 14.637 14.6988 14.467 14.5275C14.1283 14.1862 14.1298 13.6064 14.4705 13.2669L17.0231 10.6658H8.5307C8.05048 10.6658 7.66113 10.2775 7.66113 9.79623C7.66113 9.31492 8.05048 8.92666 8.5307 8.92666H17.0231L14.4705 6.43557C14.1298 6.09601 14.1283 5.59818 14.467 5.25688C14.8059 4.91579 15.3564 4.91405 15.6968 5.25362L19.7435 9.2884C19.9077 9.45188 20 9.67253 20 9.90449Z" />
</svg>
