<svg width="20" height="25" viewBox="0 0 20 25" fill="none" xmlns="http://www.w3.org/2000/svg">
    <path fill-rule="evenodd" clip-rule="evenodd" d="M0.588235 24.663H9.78194C9.84937 24.6899 9.92296 24.7047 10 24.7047C10.077 24.7047 10.1506 24.6899 10.2181 24.663H19.4118C19.7366 24.663 20 24.3996 20 24.0747V19.4368C20 17.3058 16.8912 13.6745 14.4369 12.1494C15.7895 10.5773 16.4706 8.18762 16.4706 5.44118C16.4706 5.39979 16.4703 5.35864 16.4696 5.31773C16.4716 5.2856 16.4709 5.25299 16.4675 5.22018C16.3676 1.72889 13.8872 0 10 0C6.03166 0 3.52941 1.80184 3.52941 5.44118C3.52941 5.76912 3.53912 6.09198 3.55853 6.40897C3.54876 6.42933 3.53906 6.45027 3.52941 6.47182C3.54221 6.50041 3.55512 6.52795 3.56814 6.55446C3.73002 8.83415 4.39898 10.8003 5.56893 12.1562C2.99284 13.6199 0 17.2011 0 19.4368V24.0747C0 24.3996 0.263362 24.663 0.588235 24.663ZM9.26426 23.0989V18.6751L6.19385 14.7019C6.0795 14.5539 6.05983 14.3656 6.12479 14.2052C4.15571 15.3865 1.85285 18.0844 1.85285 19.5532V23.0903L9.26426 23.0989ZM11.1171 23.0903L17.985 23.0989V19.5448C17.985 18.1791 15.7813 15.4519 14.0288 14.2052C14.0861 14.3641 14.067 14.5493 13.9624 14.6953L11.1171 18.667V23.0903ZM7.78204 13.4261L10.0981 16.5141L12.4141 13.4261C11.7538 13.7862 10.9815 13.9838 10.098 13.9838C9.21457 13.9838 8.44233 13.7862 7.78204 13.4261ZM10.0346 12.4649C7.34995 12.4649 5.78318 10.1914 5.43491 6.88569C6.40591 6.7082 7.26689 6.08837 8.00908 5.0535C9.35393 6.34296 11.5957 6.62143 14.6992 5.95532C14.5629 9.7573 12.9644 12.4649 10.0346 12.4649ZM5.36513 4.81742C6.14879 4.69124 6.85585 4.27111 7.49891 3.53025C7.69074 3.30923 8.12652 3.29483 8.34511 3.50228C9.31876 4.42634 11.3946 4.67387 14.6253 4.17695C14.395 2.60348 12.7561 1.85285 10.0072 1.85285C7.03551 1.85285 5.36103 2.7301 5.36103 4.57585C5.36103 4.65703 5.3624 4.73756 5.36513 4.81742ZM12.941 20.801C12.9412 21.2099 13.2047 21.5413 13.5295 21.5411L15.8825 21.5396C16.2074 21.5393 16.4706 21.2077 16.4704 20.7988C16.4703 20.3899 16.2068 20.0586 15.8819 20.0588L13.529 20.0603C13.2041 20.0605 12.9409 20.3921 12.941 20.801Z" />
</svg>