<svg width="20" height="20" viewBox="0 0 20 20" fill="none" xmlns="http://www.w3.org/2000/svg">
<path fill-rule="evenodd" clip-rule="evenodd" d="M10 20C4.47715 20 0 15.5228 0 10C0 4.47715 4.47715 0 10 0C15.5228 0 20 4.47715 20 10C20 15.5228 15.5228 20 10 20ZM10.05 1.85C5.52124 1.85 1.84998 5.52127 1.84998 10.05C1.84998 14.5787 5.52124 18.25 10.05 18.25C14.5787 18.25 18.25 14.5787 18.25 10.05C18.25 5.52127 14.5787 1.85 10.05 1.85ZM13.3333 14.1663C13.1131 14.1661 12.9022 14.0779 12.7472 13.9215C12.5923 13.765 12.5063 13.5531 12.5083 13.3329V9.17461C12.5083 8.71897 12.8777 8.34961 13.3333 8.34961C13.789 8.34961 14.1583 8.71897 14.1583 9.17461V13.3329C14.1603 13.5531 14.0743 13.765 13.9194 13.9215C13.7645 14.0779 13.5535 14.1661 13.3333 14.1663ZM10 14.1667C9.53976 14.1667 9.16667 13.7936 9.16667 13.3333V6.66667C9.16667 6.20643 9.53976 5.83333 10 5.83333C10.4602 5.83333 10.8333 6.20643 10.8333 6.66667V13.3333C10.8333 13.7936 10.4602 14.1667 10 14.1667ZM6.66666 14.1671C6.44647 14.1669 6.23549 14.0787 6.08058 13.9222C5.92567 13.7658 5.83966 13.5539 5.84166 13.3337V10.8429C5.84166 10.3873 6.21102 10.0179 6.66666 10.0179C7.12229 10.0179 7.49166 10.3873 7.49166 10.8429V13.3337C7.49366 13.5539 7.40765 13.7658 7.25274 13.9222C7.09783 14.0787 6.88684 14.1669 6.66666 14.1671Z"/>
</svg>
