<svg width="17" height="11" viewBox="0 0 17 11" fill="black" xmlns="http://www.w3.org/2000/svg">
<path d="M16.0672 4.83857C15.9228 4.64096 12.4809 0 8.08493 0C3.68898 0 0.246909 4.64096 0.10261 4.83838C-0.0342034 5.02585 -0.0342034 5.28012 0.10261 5.46759C0.246909 5.6652 3.68898 10.3062 8.08493 10.3062C12.4809 10.3062 15.9228 5.66517 16.0672 5.46775C16.2043 5.28031 16.2043 5.02585 16.0672 4.83857ZM8.08493 9.24001C4.84685 9.24001 2.04232 6.15971 1.21212 5.15272C2.04125 4.14484 4.8399 1.06615 8.08493 1.06615C11.3229 1.06615 14.1272 4.14591 14.9577 5.15344C14.1286 6.16129 11.33 9.24001 8.08493 9.24001Z" fill="black"/>
<circle cx="8" cy="5" r="2.4" stroke="black" stroke-width="1.2"/>
</svg>
