<svg width="24" height="20" viewBox="0 0 24 20" fill="none" xmlns="http://www.w3.org/2000/svg">
<path fill-rule="evenodd" clip-rule="evenodd" d="M13.5897 4.18004C13.0232 4.18004 12.564 4.63927 12.564 5.20568V9.99978C12.564 10.2711 12.694 10.5311 12.885 10.7234L15.0891 12.9267C15.2897 13.128 15.5584 13.229 15.8217 13.229C16.0835 13.229 16.3479 13.1293 16.5481 12.9303C16.9494 12.5306 16.9302 11.8813 16.5304 11.4798L14.6153 9.57645V5.20568C14.6153 4.63927 14.1561 4.18004 13.5897 4.18004ZM23.5897 10C23.5897 15.5141 19.1239 20 13.6344 20C11.6092 20 9.66077 19.3931 7.99949 18.2449C7.53334 17.9228 7.41667 17.2841 7.73872 16.8182C8.06103 16.3518 8.7 16.2354 9.16564 16.5574C10.4826 17.4674 12.028 17.9487 13.6344 17.9487C17.9928 17.9487 21.5385 14.3831 21.5385 10C21.5385 5.61718 17.9928 2.05128 13.6344 2.05128C9.37206 2.05128 5.88923 5.46256 5.73795 9.71282L8.12975 7.30872C8.52923 6.90718 9.17847 6.90539 9.58026 7.30513C9.9818 7.70462 9.98334 8.35385 9.58385 8.75564L5.66821 12.6913C5.4759 12.8846 5.21411 12.9936 4.94129 12.9936C4.66821 12.9936 4.40667 12.8846 4.21411 12.6913L0.298465 8.75564C-0.101022 8.3541 -0.0992271 7.70462 0.302311 7.30513C0.70385 6.90539 1.35308 6.90744 1.75257 7.30872L3.70847 9.27462C4.08026 4.09821 8.38847 0 13.6344 0C19.1239 0 23.5897 4.4859 23.5897 10Z"/>
</svg>
