<svg width="20" height="20" viewBox="0 0 20 20" fill="none" xmlns="http://www.w3.org/2000/svg">
<path fill-rule="evenodd" clip-rule="evenodd" d="M5.91645 6.41422L8.44445 3.83333V13.4544C8.44445 14.068 8.942 14.5656 9.55556 14.5656C10.1691 14.5656 10.6667 14.068 10.6667 13.4544V3.83356L13.1942 6.41422C13.4118 6.63644 13.6998 6.74778 13.988 6.74778C14.2684 6.74778 14.5493 6.64222 14.7656 6.43044C15.2038 6.00111 15.2111 5.29756 14.7818 4.85911L10.3493 0.333778C10.1404 0.120222 9.85422 0 9.55556 0C9.25689 0 8.97089 0.120222 8.76178 0.333556L4.32911 4.85911C3.89956 5.29756 3.90689 6.00111 4.34534 6.43044C4.78356 6.85978 5.48711 6.85244 5.91645 6.41422ZM19.1111 12.8381V18.889C19.1111 19.5028 18.6136 20.0001 18 20.0001H1.11111C0.497556 20.0001 0 19.5028 0 18.889V12.8381C0 12.2246 0.497556 11.727 1.11111 11.727C1.72467 11.727 2.22222 12.2246 2.22222 12.8381V17.7779H16.8889V12.8381C16.8889 12.2246 17.3864 11.727 18 11.727C18.6136 11.727 19.1111 12.2246 19.1111 12.8381Z"/>
</svg>
