<svg width="17" height="16" viewBox="0 0 17 16" fill="none" xmlns="http://www.w3.org/2000/svg">
<path fill-rule="evenodd" clip-rule="evenodd" d="M1.86465 14.4128C2.67973 13.5503 4.62937 12.5896 6.2586 12.0217L8.01957 13.5194C8.29564 13.7543 8.70124 13.7543 8.9773 13.5194L10.7383 12.0217C12.3675 12.5896 14.3172 13.5503 15.1322 14.4128H1.86465ZM10.8035 10.4848C10.5603 10.4068 10.2944 10.4604 10.1 10.6257L8.5 11.9863L6.90015 10.6257C6.70576 10.4604 6.43986 10.4068 6.19668 10.4848C5.1619 10.8148 0 12.5913 0 15.1522C0 15.5604 0.330946 15.8913 0.73913 15.8913H16.2609C16.6691 15.8913 17 15.5604 17 15.1522C17 12.5913 11.8381 10.8148 10.8035 10.4848ZM8.50124 1.47787C10.4296 1.47787 11.9984 3.05647 11.9984 4.99706C11.9984 6.93801 10.4296 8.51698 8.50124 8.51698C6.57304 8.51698 5.00423 6.93801 5.00423 4.99706C5.00423 3.05647 6.57304 1.47787 8.50124 1.47787ZM8.50163 9.99563C11.2451 9.99563 13.4771 7.75348 13.4771 4.99745C13.4771 2.24178 11.2451 0 8.50163 0C5.75835 0 3.52636 2.24178 3.52636 4.99745C3.52636 7.75348 5.75835 9.99563 8.50163 9.99563Z"/>
</svg>
