<svg width="20" height="18" viewBox="0 0 20 18" fill="none" xmlns="http://www.w3.org/2000/svg">
<path fill-rule="evenodd" clip-rule="evenodd" d="M1.56809 14.3409C0.702022 14.3409 0 15.0543 0 15.9343C0 16.8143 0.702022 17.5278 1.56809 17.5278C2.43416 17.5278 3.13596 16.8143 3.13596 15.9343C3.13596 15.0543 2.43416 14.3409 1.56809 14.3409ZM1.56809 0C0.702022 0 0 0.713483 0 1.59348C0 2.47348 0.702022 3.18697 1.56809 3.18697C2.43416 3.18697 3.13596 2.47348 3.13596 1.59348C3.13596 0.713483 2.43416 0 1.56809 0ZM1.56809 7.2834C0.702022 7.2834 0 7.99688 0 8.87688C0 9.75688 0.702022 10.4704 1.56809 10.4704C2.43416 10.4704 3.13596 9.75688 3.13596 8.87688C3.13596 7.99688 2.43416 7.2834 1.56809 7.2834ZM18.8764 14.8321H6.41658C5.7959 14.8321 5.29298 15.3353 5.29298 15.9557C5.29298 16.5762 5.7959 17.0793 6.41658 17.0793H18.8764C19.497 17.0793 19.9999 16.5762 19.9999 15.9557C19.9999 15.3353 19.497 14.8321 18.8764 14.8321ZM18.8764 7.64115H6.41658C5.7959 7.64115 5.29298 8.1443 5.29298 8.76475C5.29298 9.3852 5.7959 9.88834 6.41658 9.88834H18.8764C19.497 9.88834 19.9999 9.3852 19.9999 8.76475C19.9999 8.1443 19.497 7.64115 18.8764 7.64115ZM5.29298 1.57378C5.29298 0.95333 5.7959 0.450184 6.41658 0.450184H18.8764C19.497 0.450184 19.9999 0.95333 19.9999 1.57378C19.9999 2.19423 19.497 2.69738 18.8764 2.69738H6.41658C5.7959 2.69738 5.29298 2.19423 5.29298 1.57378Z" fill="#22232B" fill-opacity="0.5"/>
</svg>
