<svg width="20" height="20" viewBox="0 0 20 20" fill="none" xmlns="http://www.w3.org/2000/svg">
<path fill-rule="evenodd" clip-rule="evenodd" d="M18.3333 20H1.66667C0.746192 20 0 19.2543 0 18.3344V1.67911C0 0.759256 0.746192 0.0135711 1.66667 0.0135711H12.3417L10.675 1.67911H1.66667V18.3344H18.3333V9.33473L20 7.6692V18.3344C20 19.2543 19.2538 20 18.3333 20ZM8.33333 15.8362L4.175 15.8478L4.16667 11.6723L15.4583 0.480772C15.7651 0.173002 16.182 0 16.6167 0C17.0514 0 17.4682 0.173002 17.775 0.480772L19.5083 2.22125C19.8165 2.52909 19.9897 2.94669 19.9897 3.38213C19.9897 3.81757 19.8165 4.23517 19.5083 4.54301L8.33333 15.8362ZM5.83333 14.1706H8.33333L5.83333 11.6723V14.1706ZM16.6167 1.64166L7.5 10.8396L9.16667 12.5051L18.35 3.38215L16.6167 1.64166Z" 
/>
</svg>
