<svg width="17" height="17" viewBox="0 0 17 17" fill="none" xmlns="http://www.w3.org/2000/svg">
<path fill-rule="evenodd" clip-rule="evenodd" d="M12.831 3.62182C8.13307 -0.727718 1.28167 0.0383063 0.992256 0.0729207C0.374726 0.147065 -0.0658404 0.70786 0.0080993 1.3256C0.0822439 1.94292 0.642834 2.38226 1.26098 2.30955C1.3214 2.30238 7.35886 1.62525 11.3002 5.27451C13.7736 7.5648 14.9257 11.1147 14.7246 15.8256C14.6979 16.447 15.1803 16.9723 15.8019 16.999C15.8183 16.9996 15.8345 17 15.8507 17C16.4508 17 16.9495 16.5269 16.9753 15.9218C17.2062 10.5199 15.8117 6.38176 12.831 3.62182ZM2.86371 11.5621C2.16323 11.5621 1.47709 11.8468 0.981425 12.3424C0.485762 12.8379 0.201063 13.524 0.201063 14.2243C0.201063 14.9246 0.485762 15.6107 0.981425 16.1062C1.47709 16.6018 2.16323 16.8865 2.86371 16.8865C3.56624 16.8865 4.25239 16.6018 4.746 16.1062C5.24166 15.6107 5.52636 14.9246 5.52636 14.2243C5.52636 13.524 5.24166 12.8379 4.746 12.3424C4.25239 11.8468 3.56624 11.5621 2.86371 11.5621ZM11.7154 15.9211C11.6894 16.5262 11.1907 16.9993 10.5908 16.9993C10.5746 16.9993 10.5582 16.9989 10.5418 16.9983C9.92019 16.9716 9.43784 16.4463 9.46446 15.8249C9.58838 12.924 8.89302 10.7414 7.39763 9.33762C5.01538 7.1014 1.28624 7.46803 1.24875 7.47212C0.632657 7.53807 0.0759585 7.09136 0.00857295 6.47424C-0.0586078 5.85712 0.384826 5.30206 1.00195 5.23324C1.19509 5.21133 5.77301 4.7384 8.92374 7.68042C10.9297 9.5535 11.869 12.3259 11.7154 15.9211Z"/>
</svg>
