<svg width="20" height="19" viewBox="0 0 20 19" fill="none" xmlns="http://www.w3.org/2000/svg">
<path fill-rule="evenodd" clip-rule="evenodd" d="M7.43392 12.3913H12.5657C13.0459 12.3913 13.4352 12.002 13.4352 11.5217C13.4352 11.0415 13.0459 10.6522 12.5657 10.6522H7.43392C6.95371 10.6522 6.56436 11.0415 6.56436 11.5217C6.56436 12.002 6.95371 12.3913 7.43392 12.3913ZM17.9883 8.04348H2.00652L4.27673 16.3043H9.99978H15.6796L17.9883 8.04348ZM20 4.69826V7.06739V7.06913V7.06956V7.07087C20 7.07109 19.9998 7.07109 19.9998 7.07109C19.9993 7.15696 19.9867 7.23978 19.9633 7.31804L17.18 17.4052C17.0759 17.7822 16.7328 18.0435 16.3417 18.0435H3.61174C3.21913 18.0435 2.87522 17.7804 2.77239 17.4015L0.0356522 7.31435C0.0228261 7.27152 0.0132609 7.22717 0.0073913 7.18196C0.00152174 7.13696 0 7.09196 0 7.04761V4.69826C0 4.21804 0.389348 3.8287 0.869565 3.8287C1.34978 3.8287 1.73913 4.21804 1.73913 4.69826V6.30435H18.2609V4.69826C18.2609 4.21804 18.6502 3.8287 19.1304 3.8287C19.6107 3.8287 20 4.21804 20 4.69826ZM5.71889 1.52174H14.2806C14.7008 1.52174 15.0415 1.18109 15.0415 0.76087C15.0415 0.340652 14.7008 0 14.2806 0H5.71889C5.29867 0 4.95802 0.340652 4.95802 0.76087C4.95802 1.18109 5.29867 1.52174 5.71889 1.52174ZM3.42285 3.69565C3.42285 3.21543 3.81242 2.82609 4.29242 2.82609H15.7072C16.1874 2.82609 16.5768 3.21543 16.5768 3.69565C16.5768 4.17587 16.1874 4.56522 15.7072 4.56522H4.29242C3.81242 4.56522 3.42285 4.17587 3.42285 3.69565Z" />
</svg>
